<mxfile host="Electron" agent="Mozilla/5.0 (Windows NT 10.0; Win64; x64) AppleWebKit/537.36 (KHTML, like Gecko) draw.io/27.0.9 Chrome/134.0.6998.205 Electron/35.4.0 Safari/537.36" version="27.0.9">
  <diagram name="第 1 页" id="WauzvucMdUXQNRYvtlm7">
    <mxGraphModel dx="3756" dy="2184" grid="1" gridSize="10" guides="1" tooltips="1" connect="1" arrows="1" fold="1" page="1" pageScale="1" pageWidth="1169" pageHeight="1654" math="0" shadow="0">
      <root>
        <mxCell id="0" />
        <mxCell id="1" parent="0" />
        <mxCell id="9Uqfcl2duKlNiUXf_q_9-1" value="" style="rounded=0;whiteSpace=wrap;html=1;fontSize=14;fillColor=#f5f5f5;strokeColor=#666666;fontColor=#333333;" parent="1" vertex="1">
          <mxGeometry x="30" y="15" width="2290" height="3060" as="geometry" />
        </mxCell>
        <mxCell id="9Uqfcl2duKlNiUXf_q_9-3" style="edgeStyle=orthogonalEdgeStyle;rounded=0;orthogonalLoop=1;jettySize=auto;html=1;entryX=0;entryY=0.5;entryDx=0;entryDy=0;" parent="1" source="9Uqfcl2duKlNiUXf_q_9-5" target="9Uqfcl2duKlNiUXf_q_9-7" edge="1">
          <mxGeometry relative="1" as="geometry" />
        </mxCell>
        <mxCell id="9Uqfcl2duKlNiUXf_q_9-4" style="edgeStyle=orthogonalEdgeStyle;rounded=0;orthogonalLoop=1;jettySize=auto;html=1;entryX=0;entryY=0.5;entryDx=0;entryDy=0;" parent="1" source="9Uqfcl2duKlNiUXf_q_9-5" target="9Uqfcl2duKlNiUXf_q_9-85" edge="1">
          <mxGeometry relative="1" as="geometry" />
        </mxCell>
        <mxCell id="9Uqfcl2duKlNiUXf_q_9-5" value="&lt;h2&gt;start_kernel&lt;/h2&gt;" style="rounded=1;whiteSpace=wrap;html=1;fillColor=#dae8fc;strokeColor=#6c8ebf;fontStyle=1" parent="1" vertex="1">
          <mxGeometry x="77" y="405" width="120" height="40" as="geometry" />
        </mxCell>
        <mxCell id="9Uqfcl2duKlNiUXf_q_9-6" style="edgeStyle=orthogonalEdgeStyle;rounded=0;orthogonalLoop=1;jettySize=auto;html=1;entryX=0;entryY=0.5;entryDx=0;entryDy=0;" parent="1" source="9Uqfcl2duKlNiUXf_q_9-7" target="9Uqfcl2duKlNiUXf_q_9-76" edge="1">
          <mxGeometry relative="1" as="geometry" />
        </mxCell>
        <mxCell id="9Uqfcl2duKlNiUXf_q_9-7" value="&lt;h2&gt;vfs_caches_init&lt;/h2&gt;" style="rounded=1;whiteSpace=wrap;html=1;fillColor=#dae8fc;strokeColor=#6c8ebf;fontStyle=1" parent="1" vertex="1">
          <mxGeometry x="167" y="455" width="150" height="40" as="geometry" />
        </mxCell>
        <mxCell id="9Uqfcl2duKlNiUXf_q_9-8" style="edgeStyle=orthogonalEdgeStyle;rounded=0;orthogonalLoop=1;jettySize=auto;html=1;entryX=0;entryY=0.5;entryDx=0;entryDy=0;" parent="1" source="9Uqfcl2duKlNiUXf_q_9-19" target="9Uqfcl2duKlNiUXf_q_9-22" edge="1">
          <mxGeometry relative="1" as="geometry" />
        </mxCell>
        <mxCell id="9Uqfcl2duKlNiUXf_q_9-9" style="edgeStyle=orthogonalEdgeStyle;rounded=0;orthogonalLoop=1;jettySize=auto;html=1;entryX=0;entryY=0.5;entryDx=0;entryDy=0;" parent="1" source="9Uqfcl2duKlNiUXf_q_9-19" target="9Uqfcl2duKlNiUXf_q_9-33" edge="1">
          <mxGeometry relative="1" as="geometry" />
        </mxCell>
        <mxCell id="9Uqfcl2duKlNiUXf_q_9-10" style="edgeStyle=orthogonalEdgeStyle;rounded=0;orthogonalLoop=1;jettySize=auto;html=1;entryX=0;entryY=0.5;entryDx=0;entryDy=0;" parent="1" source="9Uqfcl2duKlNiUXf_q_9-19" target="9Uqfcl2duKlNiUXf_q_9-41" edge="1">
          <mxGeometry relative="1" as="geometry" />
        </mxCell>
        <mxCell id="9Uqfcl2duKlNiUXf_q_9-11" style="edgeStyle=orthogonalEdgeStyle;rounded=0;orthogonalLoop=1;jettySize=auto;html=1;entryX=0;entryY=0.5;entryDx=0;entryDy=0;" parent="1" source="9Uqfcl2duKlNiUXf_q_9-19" target="9Uqfcl2duKlNiUXf_q_9-64" edge="1">
          <mxGeometry relative="1" as="geometry" />
        </mxCell>
        <mxCell id="9Uqfcl2duKlNiUXf_q_9-12" style="edgeStyle=orthogonalEdgeStyle;rounded=0;orthogonalLoop=1;jettySize=auto;html=1;entryX=0;entryY=0.5;entryDx=0;entryDy=0;" parent="1" source="9Uqfcl2duKlNiUXf_q_9-19" target="9Uqfcl2duKlNiUXf_q_9-66" edge="1">
          <mxGeometry relative="1" as="geometry" />
        </mxCell>
        <mxCell id="9Uqfcl2duKlNiUXf_q_9-13" style="edgeStyle=orthogonalEdgeStyle;rounded=0;orthogonalLoop=1;jettySize=auto;html=1;entryX=0;entryY=0.5;entryDx=0;entryDy=0;" parent="1" source="9Uqfcl2duKlNiUXf_q_9-19" target="9Uqfcl2duKlNiUXf_q_9-68" edge="1">
          <mxGeometry relative="1" as="geometry" />
        </mxCell>
        <mxCell id="9Uqfcl2duKlNiUXf_q_9-14" style="edgeStyle=orthogonalEdgeStyle;rounded=0;orthogonalLoop=1;jettySize=auto;html=1;entryX=0;entryY=0.5;entryDx=0;entryDy=0;" parent="1" source="9Uqfcl2duKlNiUXf_q_9-19" target="9Uqfcl2duKlNiUXf_q_9-69" edge="1">
          <mxGeometry relative="1" as="geometry" />
        </mxCell>
        <mxCell id="9Uqfcl2duKlNiUXf_q_9-15" style="edgeStyle=orthogonalEdgeStyle;rounded=0;orthogonalLoop=1;jettySize=auto;html=1;entryX=0;entryY=0.5;entryDx=0;entryDy=0;" parent="1" source="9Uqfcl2duKlNiUXf_q_9-19" target="9Uqfcl2duKlNiUXf_q_9-70" edge="1">
          <mxGeometry relative="1" as="geometry" />
        </mxCell>
        <mxCell id="9Uqfcl2duKlNiUXf_q_9-16" style="edgeStyle=orthogonalEdgeStyle;rounded=0;orthogonalLoop=1;jettySize=auto;html=1;entryX=0;entryY=0.5;entryDx=0;entryDy=0;" parent="1" source="9Uqfcl2duKlNiUXf_q_9-19" target="9Uqfcl2duKlNiUXf_q_9-71" edge="1">
          <mxGeometry relative="1" as="geometry" />
        </mxCell>
        <mxCell id="9Uqfcl2duKlNiUXf_q_9-17" style="edgeStyle=orthogonalEdgeStyle;rounded=0;orthogonalLoop=1;jettySize=auto;html=1;entryX=0;entryY=0.5;entryDx=0;entryDy=0;" parent="1" source="9Uqfcl2duKlNiUXf_q_9-19" target="9Uqfcl2duKlNiUXf_q_9-72" edge="1">
          <mxGeometry relative="1" as="geometry" />
        </mxCell>
        <mxCell id="9Uqfcl2duKlNiUXf_q_9-18" style="edgeStyle=orthogonalEdgeStyle;rounded=0;orthogonalLoop=1;jettySize=auto;html=1;entryX=0;entryY=0.5;entryDx=0;entryDy=0;" parent="1" source="9Uqfcl2duKlNiUXf_q_9-19" target="9Uqfcl2duKlNiUXf_q_9-73" edge="1">
          <mxGeometry relative="1" as="geometry" />
        </mxCell>
        <mxCell id="9Uqfcl2duKlNiUXf_q_9-19" value="&lt;h2&gt;/sys&lt;/h2&gt;" style="rounded=1;whiteSpace=wrap;html=1;fillColor=#dae8fc;strokeColor=#6c8ebf;fontStyle=1" parent="1" vertex="1">
          <mxGeometry x="1963" y="415" width="70" height="40" as="geometry" />
        </mxCell>
        <mxCell id="9Uqfcl2duKlNiUXf_q_9-20" style="edgeStyle=orthogonalEdgeStyle;rounded=0;orthogonalLoop=1;jettySize=auto;html=1;entryX=0;entryY=0.5;entryDx=0;entryDy=0;" parent="1" source="9Uqfcl2duKlNiUXf_q_9-22" target="9Uqfcl2duKlNiUXf_q_9-26" edge="1">
          <mxGeometry relative="1" as="geometry" />
        </mxCell>
        <mxCell id="9Uqfcl2duKlNiUXf_q_9-21" style="edgeStyle=orthogonalEdgeStyle;rounded=0;orthogonalLoop=1;jettySize=auto;html=1;entryX=0;entryY=0.5;entryDx=0;entryDy=0;" parent="1" source="9Uqfcl2duKlNiUXf_q_9-22" target="9Uqfcl2duKlNiUXf_q_9-30" edge="1">
          <mxGeometry relative="1" as="geometry" />
        </mxCell>
        <mxCell id="9Uqfcl2duKlNiUXf_q_9-22" value="&lt;h2&gt;/devices&lt;/h2&gt;" style="rounded=1;whiteSpace=wrap;html=1;fillColor=#dae8fc;strokeColor=#6c8ebf;fontStyle=1" parent="1" vertex="1">
          <mxGeometry x="2033" y="465" width="80" height="40" as="geometry" />
        </mxCell>
        <mxCell id="9Uqfcl2duKlNiUXf_q_9-23" style="edgeStyle=orthogonalEdgeStyle;rounded=0;orthogonalLoop=1;jettySize=auto;html=1;entryX=0;entryY=0.5;entryDx=0;entryDy=0;" parent="1" source="9Uqfcl2duKlNiUXf_q_9-26" target="9Uqfcl2duKlNiUXf_q_9-27" edge="1">
          <mxGeometry relative="1" as="geometry" />
        </mxCell>
        <mxCell id="9Uqfcl2duKlNiUXf_q_9-24" style="edgeStyle=orthogonalEdgeStyle;rounded=0;orthogonalLoop=1;jettySize=auto;html=1;entryX=0;entryY=0.5;entryDx=0;entryDy=0;" parent="1" source="9Uqfcl2duKlNiUXf_q_9-26" target="9Uqfcl2duKlNiUXf_q_9-28" edge="1">
          <mxGeometry relative="1" as="geometry" />
        </mxCell>
        <mxCell id="9Uqfcl2duKlNiUXf_q_9-25" style="edgeStyle=orthogonalEdgeStyle;rounded=0;orthogonalLoop=1;jettySize=auto;html=1;entryX=0;entryY=0.5;entryDx=0;entryDy=0;" parent="1" source="9Uqfcl2duKlNiUXf_q_9-26" target="9Uqfcl2duKlNiUXf_q_9-29" edge="1">
          <mxGeometry relative="1" as="geometry" />
        </mxCell>
        <mxCell id="9Uqfcl2duKlNiUXf_q_9-26" value="&lt;h2&gt;/system&lt;/h2&gt;" style="rounded=1;whiteSpace=wrap;html=1;fillColor=#dae8fc;strokeColor=#6c8ebf;fontStyle=1" parent="1" vertex="1">
          <mxGeometry x="2113" y="522" width="80" height="40" as="geometry" />
        </mxCell>
        <mxCell id="9Uqfcl2duKlNiUXf_q_9-27" value="&lt;h2&gt;/cpu&lt;/h2&gt;" style="rounded=1;whiteSpace=wrap;html=1;fillColor=#dae8fc;strokeColor=#6c8ebf;fontStyle=1" parent="1" vertex="1">
          <mxGeometry x="2193" y="575" width="90" height="40" as="geometry" />
        </mxCell>
        <mxCell id="9Uqfcl2duKlNiUXf_q_9-28" value="&lt;h2&gt;/memory&lt;/h2&gt;" style="rounded=1;whiteSpace=wrap;html=1;fillColor=#dae8fc;strokeColor=#6c8ebf;fontStyle=1" parent="1" vertex="1">
          <mxGeometry x="2193" y="625" width="90" height="40" as="geometry" />
        </mxCell>
        <mxCell id="9Uqfcl2duKlNiUXf_q_9-29" value="&lt;h2&gt;/container&lt;/h2&gt;" style="rounded=1;whiteSpace=wrap;html=1;fillColor=#dae8fc;strokeColor=#6c8ebf;fontStyle=1" parent="1" vertex="1">
          <mxGeometry x="2193" y="675" width="90" height="40" as="geometry" />
        </mxCell>
        <mxCell id="9Uqfcl2duKlNiUXf_q_9-30" value="&lt;h2&gt;/platform&lt;/h2&gt;" style="rounded=1;whiteSpace=wrap;html=1;fillColor=#dae8fc;strokeColor=#6c8ebf;fontStyle=1" parent="1" vertex="1">
          <mxGeometry x="2113" y="725" width="90" height="40" as="geometry" />
        </mxCell>
        <mxCell id="9Uqfcl2duKlNiUXf_q_9-31" style="edgeStyle=orthogonalEdgeStyle;rounded=0;orthogonalLoop=1;jettySize=auto;html=1;entryX=0;entryY=0.5;entryDx=0;entryDy=0;" parent="1" source="9Uqfcl2duKlNiUXf_q_9-33" target="9Uqfcl2duKlNiUXf_q_9-34" edge="1">
          <mxGeometry relative="1" as="geometry" />
        </mxCell>
        <mxCell id="9Uqfcl2duKlNiUXf_q_9-32" style="edgeStyle=orthogonalEdgeStyle;rounded=0;orthogonalLoop=1;jettySize=auto;html=1;entryX=0;entryY=0.5;entryDx=0;entryDy=0;" parent="1" source="9Uqfcl2duKlNiUXf_q_9-33" target="9Uqfcl2duKlNiUXf_q_9-35" edge="1">
          <mxGeometry relative="1" as="geometry" />
        </mxCell>
        <mxCell id="9Uqfcl2duKlNiUXf_q_9-33" value="&lt;h2&gt;/dev&lt;/h2&gt;" style="rounded=1;whiteSpace=wrap;html=1;fillColor=#dae8fc;strokeColor=#6c8ebf;fontStyle=1" parent="1" vertex="1">
          <mxGeometry x="2033" y="775" width="90" height="40" as="geometry" />
        </mxCell>
        <mxCell id="9Uqfcl2duKlNiUXf_q_9-34" value="&lt;h2&gt;/block&lt;/h2&gt;" style="rounded=1;whiteSpace=wrap;html=1;fillColor=#dae8fc;strokeColor=#6c8ebf;fontStyle=1" parent="1" vertex="1">
          <mxGeometry x="2113" y="825" width="90" height="40" as="geometry" />
        </mxCell>
        <mxCell id="9Uqfcl2duKlNiUXf_q_9-35" value="&lt;h2&gt;/char&lt;/h2&gt;" style="rounded=1;whiteSpace=wrap;html=1;fillColor=#dae8fc;strokeColor=#6c8ebf;fontStyle=1" parent="1" vertex="1">
          <mxGeometry x="2113" y="875" width="90" height="40" as="geometry" />
        </mxCell>
        <mxCell id="9Uqfcl2duKlNiUXf_q_9-37" style="edgeStyle=orthogonalEdgeStyle;rounded=0;orthogonalLoop=1;jettySize=auto;html=1;entryX=0;entryY=0.5;entryDx=0;entryDy=0;" parent="1" source="9Uqfcl2duKlNiUXf_q_9-41" target="9Uqfcl2duKlNiUXf_q_9-45" edge="1">
          <mxGeometry relative="1" as="geometry" />
        </mxCell>
        <mxCell id="9Uqfcl2duKlNiUXf_q_9-38" style="edgeStyle=orthogonalEdgeStyle;rounded=0;orthogonalLoop=1;jettySize=auto;html=1;entryX=0;entryY=0.5;entryDx=0;entryDy=0;" parent="1" source="9Uqfcl2duKlNiUXf_q_9-41" target="9Uqfcl2duKlNiUXf_q_9-51" edge="1">
          <mxGeometry relative="1" as="geometry" />
        </mxCell>
        <mxCell id="9Uqfcl2duKlNiUXf_q_9-39" style="edgeStyle=orthogonalEdgeStyle;rounded=0;orthogonalLoop=1;jettySize=auto;html=1;entryX=0;entryY=0.5;entryDx=0;entryDy=0;" parent="1" source="9Uqfcl2duKlNiUXf_q_9-41" target="9Uqfcl2duKlNiUXf_q_9-56" edge="1">
          <mxGeometry relative="1" as="geometry" />
        </mxCell>
        <mxCell id="9Uqfcl2duKlNiUXf_q_9-40" style="edgeStyle=orthogonalEdgeStyle;rounded=0;orthogonalLoop=1;jettySize=auto;html=1;entryX=0;entryY=0.5;entryDx=0;entryDy=0;" parent="1" source="9Uqfcl2duKlNiUXf_q_9-41" target="9Uqfcl2duKlNiUXf_q_9-61" edge="1">
          <mxGeometry relative="1" as="geometry" />
        </mxCell>
        <mxCell id="9Uqfcl2duKlNiUXf_q_9-41" value="&lt;h2&gt;/bus&lt;/h2&gt;" style="rounded=1;whiteSpace=wrap;html=1;fillColor=#dae8fc;strokeColor=#6c8ebf;fontStyle=1" parent="1" vertex="1">
          <mxGeometry x="2033" y="925" width="90" height="40" as="geometry" />
        </mxCell>
        <mxCell id="9Uqfcl2duKlNiUXf_q_9-42" style="edgeStyle=orthogonalEdgeStyle;rounded=0;orthogonalLoop=1;jettySize=auto;html=1;entryX=0;entryY=0.5;entryDx=0;entryDy=0;" parent="1" source="9Uqfcl2duKlNiUXf_q_9-45" target="9Uqfcl2duKlNiUXf_q_9-46" edge="1">
          <mxGeometry relative="1" as="geometry" />
        </mxCell>
        <mxCell id="9Uqfcl2duKlNiUXf_q_9-43" style="edgeStyle=orthogonalEdgeStyle;rounded=0;orthogonalLoop=1;jettySize=auto;html=1;entryX=0;entryY=0.5;entryDx=0;entryDy=0;" parent="1" source="9Uqfcl2duKlNiUXf_q_9-45" target="9Uqfcl2duKlNiUXf_q_9-47" edge="1">
          <mxGeometry relative="1" as="geometry" />
        </mxCell>
        <mxCell id="9Uqfcl2duKlNiUXf_q_9-44" style="edgeStyle=orthogonalEdgeStyle;rounded=0;orthogonalLoop=1;jettySize=auto;html=1;entryX=0;entryY=0.5;entryDx=0;entryDy=0;" parent="1" source="9Uqfcl2duKlNiUXf_q_9-45" target="9Uqfcl2duKlNiUXf_q_9-48" edge="1">
          <mxGeometry relative="1" as="geometry" />
        </mxCell>
        <mxCell id="9Uqfcl2duKlNiUXf_q_9-45" value="&lt;h2&gt;/platform&lt;/h2&gt;" style="rounded=1;whiteSpace=wrap;html=1;fillColor=#dae8fc;strokeColor=#6c8ebf;fontStyle=1" parent="1" vertex="1">
          <mxGeometry x="2113" y="975" width="90" height="40" as="geometry" />
        </mxCell>
        <mxCell id="9Uqfcl2duKlNiUXf_q_9-46" value="&lt;h2&gt;/devices&lt;/h2&gt;" style="rounded=1;whiteSpace=wrap;html=1;fillColor=#dae8fc;strokeColor=#6c8ebf;fontStyle=1" parent="1" vertex="1">
          <mxGeometry x="2193" y="1025" width="90" height="40" as="geometry" />
        </mxCell>
        <mxCell id="9Uqfcl2duKlNiUXf_q_9-47" value="&lt;h2&gt;/drivers&lt;/h2&gt;" style="rounded=1;whiteSpace=wrap;html=1;fillColor=#dae8fc;strokeColor=#6c8ebf;fontStyle=1" parent="1" vertex="1">
          <mxGeometry x="2193" y="1075" width="90" height="40" as="geometry" />
        </mxCell>
        <mxCell id="9Uqfcl2duKlNiUXf_q_9-48" value="&lt;h2&gt;uevent&lt;/h2&gt;" style="rounded=1;whiteSpace=wrap;html=1;fillColor=#dae8fc;strokeColor=#6c8ebf;fontStyle=1" parent="1" vertex="1">
          <mxGeometry x="2193" y="1125" width="90" height="40" as="geometry" />
        </mxCell>
        <mxCell id="9Uqfcl2duKlNiUXf_q_9-49" style="edgeStyle=orthogonalEdgeStyle;rounded=0;orthogonalLoop=1;jettySize=auto;html=1;entryX=0;entryY=0.5;entryDx=0;entryDy=0;" parent="1" source="9Uqfcl2duKlNiUXf_q_9-51" target="9Uqfcl2duKlNiUXf_q_9-52" edge="1">
          <mxGeometry relative="1" as="geometry" />
        </mxCell>
        <mxCell id="9Uqfcl2duKlNiUXf_q_9-50" style="edgeStyle=orthogonalEdgeStyle;rounded=0;orthogonalLoop=1;jettySize=auto;html=1;entryX=0;entryY=0.5;entryDx=0;entryDy=0;" parent="1" source="9Uqfcl2duKlNiUXf_q_9-51" target="9Uqfcl2duKlNiUXf_q_9-53" edge="1">
          <mxGeometry relative="1" as="geometry" />
        </mxCell>
        <mxCell id="9Uqfcl2duKlNiUXf_q_9-51" value="&lt;h2&gt;/cpu&lt;/h2&gt;" style="rounded=1;whiteSpace=wrap;html=1;fillColor=#dae8fc;strokeColor=#6c8ebf;fontStyle=1" parent="1" vertex="1">
          <mxGeometry x="2113" y="1175" width="80" height="40" as="geometry" />
        </mxCell>
        <mxCell id="9Uqfcl2duKlNiUXf_q_9-52" value="&lt;h2&gt;/devices&lt;/h2&gt;" style="rounded=1;whiteSpace=wrap;html=1;fillColor=#dae8fc;strokeColor=#6c8ebf;fontStyle=1" parent="1" vertex="1">
          <mxGeometry x="2193" y="1225" width="90" height="40" as="geometry" />
        </mxCell>
        <mxCell id="9Uqfcl2duKlNiUXf_q_9-53" value="&lt;h2&gt;/drivers&lt;/h2&gt;" style="rounded=1;whiteSpace=wrap;html=1;fillColor=#dae8fc;strokeColor=#6c8ebf;fontStyle=1" parent="1" vertex="1">
          <mxGeometry x="2193" y="1275" width="90" height="40" as="geometry" />
        </mxCell>
        <mxCell id="9Uqfcl2duKlNiUXf_q_9-54" style="edgeStyle=orthogonalEdgeStyle;rounded=0;orthogonalLoop=1;jettySize=auto;html=1;entryX=0;entryY=0.5;entryDx=0;entryDy=0;" parent="1" source="9Uqfcl2duKlNiUXf_q_9-56" target="9Uqfcl2duKlNiUXf_q_9-57" edge="1">
          <mxGeometry relative="1" as="geometry" />
        </mxCell>
        <mxCell id="9Uqfcl2duKlNiUXf_q_9-55" style="edgeStyle=orthogonalEdgeStyle;rounded=0;orthogonalLoop=1;jettySize=auto;html=1;entryX=0;entryY=0.5;entryDx=0;entryDy=0;" parent="1" source="9Uqfcl2duKlNiUXf_q_9-56" target="9Uqfcl2duKlNiUXf_q_9-58" edge="1">
          <mxGeometry relative="1" as="geometry" />
        </mxCell>
        <mxCell id="9Uqfcl2duKlNiUXf_q_9-56" value="&lt;h2&gt;/memory&lt;/h2&gt;" style="rounded=1;whiteSpace=wrap;html=1;fillColor=#dae8fc;strokeColor=#6c8ebf;fontStyle=1" parent="1" vertex="1">
          <mxGeometry x="2113" y="1325" width="80" height="40" as="geometry" />
        </mxCell>
        <mxCell id="9Uqfcl2duKlNiUXf_q_9-57" value="&lt;h2&gt;/devices&lt;/h2&gt;" style="rounded=1;whiteSpace=wrap;html=1;fillColor=#dae8fc;strokeColor=#6c8ebf;fontStyle=1" parent="1" vertex="1">
          <mxGeometry x="2193" y="1375" width="90" height="40" as="geometry" />
        </mxCell>
        <mxCell id="9Uqfcl2duKlNiUXf_q_9-58" value="&lt;h2&gt;/drivers&lt;/h2&gt;" style="rounded=1;whiteSpace=wrap;html=1;fillColor=#dae8fc;strokeColor=#6c8ebf;fontStyle=1" parent="1" vertex="1">
          <mxGeometry x="2193" y="1425" width="90" height="40" as="geometry" />
        </mxCell>
        <mxCell id="9Uqfcl2duKlNiUXf_q_9-59" style="edgeStyle=orthogonalEdgeStyle;rounded=0;orthogonalLoop=1;jettySize=auto;html=1;entryX=0;entryY=0.5;entryDx=0;entryDy=0;" parent="1" source="9Uqfcl2duKlNiUXf_q_9-61" target="9Uqfcl2duKlNiUXf_q_9-62" edge="1">
          <mxGeometry relative="1" as="geometry" />
        </mxCell>
        <mxCell id="9Uqfcl2duKlNiUXf_q_9-60" style="edgeStyle=orthogonalEdgeStyle;rounded=0;orthogonalLoop=1;jettySize=auto;html=1;entryX=0;entryY=0.5;entryDx=0;entryDy=0;" parent="1" source="9Uqfcl2duKlNiUXf_q_9-61" target="9Uqfcl2duKlNiUXf_q_9-63" edge="1">
          <mxGeometry relative="1" as="geometry" />
        </mxCell>
        <mxCell id="9Uqfcl2duKlNiUXf_q_9-61" value="&lt;h2&gt;/devices&lt;/h2&gt;" style="rounded=1;whiteSpace=wrap;html=1;fillColor=#dae8fc;strokeColor=#6c8ebf;fontStyle=1" parent="1" vertex="1">
          <mxGeometry x="2113" y="1475" width="80" height="40" as="geometry" />
        </mxCell>
        <mxCell id="9Uqfcl2duKlNiUXf_q_9-62" value="&lt;h2&gt;/devices&lt;/h2&gt;" style="rounded=1;whiteSpace=wrap;html=1;fillColor=#dae8fc;strokeColor=#6c8ebf;fontStyle=1" parent="1" vertex="1">
          <mxGeometry x="2193" y="1525" width="90" height="40" as="geometry" />
        </mxCell>
        <mxCell id="9Uqfcl2duKlNiUXf_q_9-63" value="&lt;h2&gt;/drivers&lt;/h2&gt;" style="rounded=1;whiteSpace=wrap;html=1;fillColor=#dae8fc;strokeColor=#6c8ebf;fontStyle=1" parent="1" vertex="1">
          <mxGeometry x="2193" y="1575" width="90" height="40" as="geometry" />
        </mxCell>
        <mxCell id="9Uqfcl2duKlNiUXf_q_9-64" value="&lt;h2&gt;/class&lt;/h2&gt;" style="rounded=1;whiteSpace=wrap;html=1;fillColor=#dae8fc;strokeColor=#6c8ebf;fontStyle=1" parent="1" vertex="1">
          <mxGeometry x="2033" y="1625" width="90" height="40" as="geometry" />
        </mxCell>
        <mxCell id="9Uqfcl2duKlNiUXf_q_9-65" style="edgeStyle=orthogonalEdgeStyle;rounded=0;orthogonalLoop=1;jettySize=auto;html=1;entryX=0;entryY=0.5;entryDx=0;entryDy=0;" parent="1" source="9Uqfcl2duKlNiUXf_q_9-66" target="9Uqfcl2duKlNiUXf_q_9-67" edge="1">
          <mxGeometry relative="1" as="geometry" />
        </mxCell>
        <mxCell id="9Uqfcl2duKlNiUXf_q_9-66" value="&lt;h2&gt;/firmware&lt;/h2&gt;" style="rounded=1;whiteSpace=wrap;html=1;fillColor=#dae8fc;strokeColor=#6c8ebf;fontStyle=1" parent="1" vertex="1">
          <mxGeometry x="2033" y="1695" width="90" height="40" as="geometry" />
        </mxCell>
        <mxCell id="9Uqfcl2duKlNiUXf_q_9-67" value="&lt;h2&gt;/devicetree&lt;/h2&gt;" style="rounded=1;whiteSpace=wrap;html=1;fillColor=#dae8fc;strokeColor=#6c8ebf;fontStyle=1" parent="1" vertex="1">
          <mxGeometry x="2113" y="1745" width="120" height="40" as="geometry" />
        </mxCell>
        <mxCell id="9Uqfcl2duKlNiUXf_q_9-68" value="&lt;h2&gt;/hypervisor&lt;/h2&gt;" style="rounded=1;whiteSpace=wrap;html=1;fillColor=#dae8fc;strokeColor=#6c8ebf;fontStyle=1" parent="1" vertex="1">
          <mxGeometry x="2033" y="1795" width="110" height="40" as="geometry" />
        </mxCell>
        <mxCell id="9Uqfcl2duKlNiUXf_q_9-69" value="&lt;h2&gt;/fs&lt;/h2&gt;" style="rounded=1;whiteSpace=wrap;html=1;fillColor=#dae8fc;strokeColor=#6c8ebf;fontStyle=1" parent="1" vertex="1">
          <mxGeometry x="2033" y="1845" width="110" height="40" as="geometry" />
        </mxCell>
        <mxCell id="9Uqfcl2duKlNiUXf_q_9-70" value="&lt;h2&gt;/power&lt;/h2&gt;" style="rounded=1;whiteSpace=wrap;html=1;fillColor=#dae8fc;strokeColor=#6c8ebf;fontStyle=1" parent="1" vertex="1">
          <mxGeometry x="2033" y="1895" width="110" height="40" as="geometry" />
        </mxCell>
        <mxCell id="9Uqfcl2duKlNiUXf_q_9-71" value="&lt;h2&gt;/kernel&lt;/h2&gt;" style="rounded=1;whiteSpace=wrap;html=1;fillColor=#dae8fc;strokeColor=#6c8ebf;fontStyle=1" parent="1" vertex="1">
          <mxGeometry x="2033" y="1945" width="110" height="40" as="geometry" />
        </mxCell>
        <mxCell id="9Uqfcl2duKlNiUXf_q_9-72" value="&lt;h2&gt;/block&lt;/h2&gt;" style="rounded=1;whiteSpace=wrap;html=1;fillColor=#dae8fc;strokeColor=#6c8ebf;fontStyle=1" parent="1" vertex="1">
          <mxGeometry x="2033" y="1995" width="110" height="40" as="geometry" />
        </mxCell>
        <mxCell id="9Uqfcl2duKlNiUXf_q_9-73" value="&lt;h2&gt;/module&lt;/h2&gt;" style="rounded=1;whiteSpace=wrap;html=1;fillColor=#dae8fc;strokeColor=#6c8ebf;fontStyle=1" parent="1" vertex="1">
          <mxGeometry x="2033" y="2045" width="110" height="40" as="geometry" />
        </mxCell>
        <mxCell id="9Uqfcl2duKlNiUXf_q_9-74" style="edgeStyle=orthogonalEdgeStyle;rounded=0;orthogonalLoop=1;jettySize=auto;html=1;entryX=0;entryY=0.5;entryDx=0;entryDy=0;" parent="1" source="9Uqfcl2duKlNiUXf_q_9-76" target="9Uqfcl2duKlNiUXf_q_9-79" edge="1">
          <mxGeometry relative="1" as="geometry" />
        </mxCell>
        <mxCell id="9Uqfcl2duKlNiUXf_q_9-75" style="edgeStyle=orthogonalEdgeStyle;rounded=0;orthogonalLoop=1;jettySize=auto;html=1;entryX=0;entryY=0.5;entryDx=0;entryDy=0;" parent="1" source="9Uqfcl2duKlNiUXf_q_9-76" target="9Uqfcl2duKlNiUXf_q_9-82" edge="1">
          <mxGeometry relative="1" as="geometry" />
        </mxCell>
        <mxCell id="9Uqfcl2duKlNiUXf_q_9-76" value="&lt;h2&gt;mnt_init&lt;/h2&gt;" style="rounded=1;whiteSpace=wrap;html=1;fillColor=#dae8fc;strokeColor=#6c8ebf;fontStyle=1" parent="1" vertex="1">
          <mxGeometry x="317" y="505" width="130" height="40" as="geometry" />
        </mxCell>
        <mxCell id="9Uqfcl2duKlNiUXf_q_9-77" style="edgeStyle=orthogonalEdgeStyle;rounded=0;orthogonalLoop=1;jettySize=auto;html=1;entryX=0;entryY=0.5;entryDx=0;entryDy=0;curved=1;fillColor=#6a00ff;strokeColor=#3700CC;strokeWidth=2;" parent="1" source="9Uqfcl2duKlNiUXf_q_9-79" target="9Uqfcl2duKlNiUXf_q_9-19" edge="1">
          <mxGeometry relative="1" as="geometry" />
        </mxCell>
        <mxCell id="9Uqfcl2duKlNiUXf_q_9-78" value="&lt;font style=&quot;font-size: 16px;&quot;&gt;&lt;b&gt;创建sys目录&lt;br&gt;唯一不挂载kobj的文件夹&lt;/b&gt;&lt;/font&gt;" style="edgeLabel;html=1;align=center;verticalAlign=middle;resizable=0;points=[];" parent="9Uqfcl2duKlNiUXf_q_9-77" vertex="1" connectable="0">
          <mxGeometry x="-0.0121" y="1" relative="1" as="geometry">
            <mxPoint y="-1" as="offset" />
          </mxGeometry>
        </mxCell>
        <mxCell id="9Uqfcl2duKlNiUXf_q_9-79" value="&lt;h2&gt;sysfs_init&lt;/h2&gt;" style="rounded=1;whiteSpace=wrap;html=1;fillColor=#dae8fc;strokeColor=#6c8ebf;fontStyle=1" parent="1" vertex="1">
          <mxGeometry x="447" y="555" width="140" height="40" as="geometry" />
        </mxCell>
        <mxCell id="9Uqfcl2duKlNiUXf_q_9-80" style="edgeStyle=orthogonalEdgeStyle;rounded=0;orthogonalLoop=1;jettySize=auto;html=1;entryX=0;entryY=0.25;entryDx=0;entryDy=0;curved=1;fillColor=#6a00ff;strokeColor=#3700CC;strokeWidth=2;" parent="1" source="9Uqfcl2duKlNiUXf_q_9-82" target="9Uqfcl2duKlNiUXf_q_9-69" edge="1">
          <mxGeometry relative="1" as="geometry" />
        </mxCell>
        <mxCell id="9Uqfcl2duKlNiUXf_q_9-81" value="" style="edgeStyle=orthogonalEdgeStyle;rounded=0;orthogonalLoop=1;jettySize=auto;html=1;shape=flexArrow;shadow=0;" parent="1" source="9Uqfcl2duKlNiUXf_q_9-82" target="9Uqfcl2duKlNiUXf_q_9-83" edge="1">
          <mxGeometry relative="1" as="geometry" />
        </mxCell>
        <mxCell id="9Uqfcl2duKlNiUXf_q_9-82" value="&lt;h2&gt;kobject_create_and_add&lt;/h2&gt;" style="rounded=1;whiteSpace=wrap;html=1;fillColor=#dae8fc;strokeColor=#6c8ebf;fontStyle=1" parent="1" vertex="1">
          <mxGeometry x="447" y="615" width="240" height="40" as="geometry" />
        </mxCell>
        <mxCell id="9Uqfcl2duKlNiUXf_q_9-83" value="&lt;h2&gt;&lt;font style=&quot;font-size: 20px;&quot;&gt;fs的kobj&lt;/font&gt;&lt;/h2&gt;" style="rounded=1;whiteSpace=wrap;html=1;fillColor=#fff2cc;strokeColor=#d6b656;fontStyle=1" parent="1" vertex="1">
          <mxGeometry x="177" y="615" width="130" height="40" as="geometry" />
        </mxCell>
        <mxCell id="9Uqfcl2duKlNiUXf_q_9-84" style="edgeStyle=orthogonalEdgeStyle;rounded=0;orthogonalLoop=1;jettySize=auto;html=1;entryX=0;entryY=0.5;entryDx=0;entryDy=0;" parent="1" source="9Uqfcl2duKlNiUXf_q_9-85" target="9Uqfcl2duKlNiUXf_q_9-87" edge="1">
          <mxGeometry relative="1" as="geometry" />
        </mxCell>
        <mxCell id="9Uqfcl2duKlNiUXf_q_9-85" value="&lt;h2&gt;kernel_init&lt;/h2&gt;" style="rounded=1;whiteSpace=wrap;html=1;fillColor=#dae8fc;strokeColor=#6c8ebf;fontStyle=1" parent="1" vertex="1">
          <mxGeometry x="167" y="685" width="120" height="40" as="geometry" />
        </mxCell>
        <mxCell id="9Uqfcl2duKlNiUXf_q_9-86" style="edgeStyle=orthogonalEdgeStyle;rounded=0;orthogonalLoop=1;jettySize=auto;html=1;entryX=0;entryY=0.5;entryDx=0;entryDy=0;" parent="1" source="9Uqfcl2duKlNiUXf_q_9-87" target="9Uqfcl2duKlNiUXf_q_9-90" edge="1">
          <mxGeometry relative="1" as="geometry" />
        </mxCell>
        <mxCell id="9Uqfcl2duKlNiUXf_q_9-87" value="&lt;h2&gt;kernel_init_freeable&lt;/h2&gt;" style="rounded=1;whiteSpace=wrap;html=1;fillColor=#dae8fc;strokeColor=#6c8ebf;fontStyle=1" parent="1" vertex="1">
          <mxGeometry x="277" y="735" width="190" height="40" as="geometry" />
        </mxCell>
        <mxCell id="9Uqfcl2duKlNiUXf_q_9-88" style="edgeStyle=orthogonalEdgeStyle;rounded=0;orthogonalLoop=1;jettySize=auto;html=1;entryX=0;entryY=0.5;entryDx=0;entryDy=0;" parent="1" source="9Uqfcl2duKlNiUXf_q_9-90" target="9Uqfcl2duKlNiUXf_q_9-165" edge="1">
          <mxGeometry relative="1" as="geometry" />
        </mxCell>
        <mxCell id="9Uqfcl2duKlNiUXf_q_9-89" style="edgeStyle=orthogonalEdgeStyle;rounded=0;orthogonalLoop=1;jettySize=auto;html=1;entryX=0;entryY=0.5;entryDx=0;entryDy=0;" parent="1" source="9Uqfcl2duKlNiUXf_q_9-90" target="9Uqfcl2duKlNiUXf_q_9-97" edge="1">
          <mxGeometry relative="1" as="geometry" />
        </mxCell>
        <mxCell id="9Uqfcl2duKlNiUXf_q_9-90" value="&lt;h2&gt;do_basic_setup&lt;/h2&gt;" style="rounded=1;whiteSpace=wrap;html=1;fillColor=#dae8fc;strokeColor=#6c8ebf;fontStyle=1" parent="1" vertex="1">
          <mxGeometry x="437" y="785" width="150" height="40" as="geometry" />
        </mxCell>
        <mxCell id="9Uqfcl2duKlNiUXf_q_9-91" style="edgeStyle=orthogonalEdgeStyle;rounded=0;orthogonalLoop=1;jettySize=auto;html=1;entryX=0;entryY=0.5;entryDx=0;entryDy=0;" parent="1" source="9Uqfcl2duKlNiUXf_q_9-97" target="9Uqfcl2duKlNiUXf_q_9-102" edge="1">
          <mxGeometry relative="1" as="geometry" />
        </mxCell>
        <mxCell id="9Uqfcl2duKlNiUXf_q_9-92" style="edgeStyle=orthogonalEdgeStyle;rounded=0;orthogonalLoop=1;jettySize=auto;html=1;entryX=0;entryY=0.5;entryDx=0;entryDy=0;" parent="1" source="9Uqfcl2duKlNiUXf_q_9-97" target="9Uqfcl2duKlNiUXf_q_9-117" edge="1">
          <mxGeometry relative="1" as="geometry" />
        </mxCell>
        <mxCell id="9Uqfcl2duKlNiUXf_q_9-93" style="edgeStyle=orthogonalEdgeStyle;rounded=0;orthogonalLoop=1;jettySize=auto;html=1;entryX=0;entryY=0.5;entryDx=0;entryDy=0;" parent="1" source="9Uqfcl2duKlNiUXf_q_9-97" target="9Uqfcl2duKlNiUXf_q_9-125" edge="1">
          <mxGeometry relative="1" as="geometry" />
        </mxCell>
        <mxCell id="9Uqfcl2duKlNiUXf_q_9-94" style="edgeStyle=orthogonalEdgeStyle;rounded=0;orthogonalLoop=1;jettySize=auto;html=1;entryX=0;entryY=0.5;entryDx=0;entryDy=0;" parent="1" source="9Uqfcl2duKlNiUXf_q_9-97" target="9Uqfcl2duKlNiUXf_q_9-161" edge="1">
          <mxGeometry relative="1" as="geometry" />
        </mxCell>
        <mxCell id="9Uqfcl2duKlNiUXf_q_9-195" style="edgeStyle=orthogonalEdgeStyle;rounded=0;orthogonalLoop=1;jettySize=auto;html=1;entryX=0;entryY=0.5;entryDx=0;entryDy=0;" parent="1" source="9Uqfcl2duKlNiUXf_q_9-97" target="9Uqfcl2duKlNiUXf_q_9-162" edge="1">
          <mxGeometry relative="1" as="geometry" />
        </mxCell>
        <mxCell id="9Uqfcl2duKlNiUXf_q_9-196" style="edgeStyle=orthogonalEdgeStyle;rounded=0;orthogonalLoop=1;jettySize=auto;html=1;entryX=0;entryY=0.5;entryDx=0;entryDy=0;" parent="1" source="9Uqfcl2duKlNiUXf_q_9-97" target="9Uqfcl2duKlNiUXf_q_9-163" edge="1">
          <mxGeometry relative="1" as="geometry" />
        </mxCell>
        <mxCell id="9Uqfcl2duKlNiUXf_q_9-97" value="&lt;h2&gt;driver_init&lt;/h2&gt;" style="rounded=1;whiteSpace=wrap;html=1;fillColor=#dae8fc;strokeColor=#6c8ebf;fontStyle=1" parent="1" vertex="1">
          <mxGeometry x="557" y="835" width="120" height="40" as="geometry" />
        </mxCell>
        <mxCell id="9Uqfcl2duKlNiUXf_q_9-98" style="edgeStyle=orthogonalEdgeStyle;rounded=0;orthogonalLoop=1;jettySize=auto;html=1;entryX=0;entryY=0.5;entryDx=0;entryDy=0;" parent="1" source="9Uqfcl2duKlNiUXf_q_9-102" target="9Uqfcl2duKlNiUXf_q_9-105" edge="1">
          <mxGeometry relative="1" as="geometry" />
        </mxCell>
        <mxCell id="9Uqfcl2duKlNiUXf_q_9-99" style="edgeStyle=orthogonalEdgeStyle;rounded=0;orthogonalLoop=1;jettySize=auto;html=1;entryX=0;entryY=0.5;entryDx=0;entryDy=0;" parent="1" source="9Uqfcl2duKlNiUXf_q_9-102" target="9Uqfcl2duKlNiUXf_q_9-108" edge="1">
          <mxGeometry relative="1" as="geometry" />
        </mxCell>
        <mxCell id="9Uqfcl2duKlNiUXf_q_9-100" style="edgeStyle=orthogonalEdgeStyle;rounded=0;orthogonalLoop=1;jettySize=auto;html=1;entryX=0;entryY=0.5;entryDx=0;entryDy=0;" parent="1" source="9Uqfcl2duKlNiUXf_q_9-102" target="9Uqfcl2duKlNiUXf_q_9-111" edge="1">
          <mxGeometry relative="1" as="geometry" />
        </mxCell>
        <mxCell id="9Uqfcl2duKlNiUXf_q_9-101" style="edgeStyle=orthogonalEdgeStyle;rounded=0;orthogonalLoop=1;jettySize=auto;html=1;entryX=0;entryY=0.5;entryDx=0;entryDy=0;" parent="1" source="9Uqfcl2duKlNiUXf_q_9-102" target="9Uqfcl2duKlNiUXf_q_9-114" edge="1">
          <mxGeometry relative="1" as="geometry" />
        </mxCell>
        <mxCell id="9Uqfcl2duKlNiUXf_q_9-102" value="&lt;h2&gt;devices_init&lt;/h2&gt;" style="rounded=1;whiteSpace=wrap;html=1;fillColor=#dae8fc;strokeColor=#6c8ebf;fontStyle=1" parent="1" vertex="1">
          <mxGeometry x="677" y="885" width="120" height="40" as="geometry" />
        </mxCell>
        <mxCell id="9Uqfcl2duKlNiUXf_q_9-103" style="edgeStyle=orthogonalEdgeStyle;rounded=0;orthogonalLoop=1;jettySize=auto;html=1;entryX=1;entryY=0.5;entryDx=0;entryDy=0;shape=flexArrow;" parent="1" source="9Uqfcl2duKlNiUXf_q_9-105" target="9Uqfcl2duKlNiUXf_q_9-127" edge="1">
          <mxGeometry relative="1" as="geometry" />
        </mxCell>
        <mxCell id="9Uqfcl2duKlNiUXf_q_9-104" style="edgeStyle=orthogonalEdgeStyle;rounded=0;orthogonalLoop=1;jettySize=auto;html=1;entryX=0;entryY=0.5;entryDx=0;entryDy=0;curved=1;fillColor=#d5e8d4;strokeColor=#82b366;strokeWidth=2;" parent="1" source="9Uqfcl2duKlNiUXf_q_9-105" target="9Uqfcl2duKlNiUXf_q_9-22" edge="1">
          <mxGeometry relative="1" as="geometry" />
        </mxCell>
        <mxCell id="9Uqfcl2duKlNiUXf_q_9-105" value="&lt;h2&gt;kset_create_and_add&lt;/h2&gt;" style="rounded=1;whiteSpace=wrap;html=1;fillColor=#dae8fc;strokeColor=#6c8ebf;fontStyle=1" parent="1" vertex="1">
          <mxGeometry x="797" y="935" width="200" height="40" as="geometry" />
        </mxCell>
        <mxCell id="9Uqfcl2duKlNiUXf_q_9-106" style="edgeStyle=orthogonalEdgeStyle;rounded=0;orthogonalLoop=1;jettySize=auto;html=1;entryX=1;entryY=0.5;entryDx=0;entryDy=0;shape=flexArrow;" parent="1" source="9Uqfcl2duKlNiUXf_q_9-108" target="9Uqfcl2duKlNiUXf_q_9-128" edge="1">
          <mxGeometry relative="1" as="geometry" />
        </mxCell>
        <mxCell id="9Uqfcl2duKlNiUXf_q_9-107" style="edgeStyle=orthogonalEdgeStyle;rounded=0;orthogonalLoop=1;jettySize=auto;html=1;entryX=0;entryY=0.5;entryDx=0;entryDy=0;curved=1;fillColor=#d5e8d4;strokeColor=#82b366;strokeWidth=2;" parent="1" source="9Uqfcl2duKlNiUXf_q_9-108" target="9Uqfcl2duKlNiUXf_q_9-33" edge="1">
          <mxGeometry relative="1" as="geometry" />
        </mxCell>
        <mxCell id="9Uqfcl2duKlNiUXf_q_9-108" value="&lt;h2&gt;kobject_create_and_add&lt;/h2&gt;" style="rounded=1;whiteSpace=wrap;html=1;fillColor=#dae8fc;strokeColor=#6c8ebf;fontStyle=1" parent="1" vertex="1">
          <mxGeometry x="797" y="985" width="220" height="40" as="geometry" />
        </mxCell>
        <mxCell id="9Uqfcl2duKlNiUXf_q_9-109" style="edgeStyle=orthogonalEdgeStyle;rounded=0;orthogonalLoop=1;jettySize=auto;html=1;entryX=1;entryY=0.5;entryDx=0;entryDy=0;shape=flexArrow;" parent="1" source="9Uqfcl2duKlNiUXf_q_9-111" target="9Uqfcl2duKlNiUXf_q_9-129" edge="1">
          <mxGeometry relative="1" as="geometry" />
        </mxCell>
        <mxCell id="9Uqfcl2duKlNiUXf_q_9-110" style="edgeStyle=orthogonalEdgeStyle;rounded=0;orthogonalLoop=1;jettySize=auto;html=1;entryX=0;entryY=0.5;entryDx=0;entryDy=0;curved=1;fillColor=#d5e8d4;strokeColor=#82b366;strokeWidth=2;" parent="1" source="9Uqfcl2duKlNiUXf_q_9-111" target="9Uqfcl2duKlNiUXf_q_9-34" edge="1">
          <mxGeometry relative="1" as="geometry" />
        </mxCell>
        <mxCell id="9Uqfcl2duKlNiUXf_q_9-111" value="&lt;h2&gt;kobject_create_and_add&lt;/h2&gt;" style="rounded=1;whiteSpace=wrap;html=1;fillColor=#dae8fc;strokeColor=#6c8ebf;fontStyle=1" parent="1" vertex="1">
          <mxGeometry x="797" y="1035" width="220" height="40" as="geometry" />
        </mxCell>
        <mxCell id="9Uqfcl2duKlNiUXf_q_9-112" style="edgeStyle=orthogonalEdgeStyle;rounded=0;orthogonalLoop=1;jettySize=auto;html=1;entryX=1;entryY=0.5;entryDx=0;entryDy=0;shape=flexArrow;" parent="1" source="9Uqfcl2duKlNiUXf_q_9-114" target="9Uqfcl2duKlNiUXf_q_9-130" edge="1">
          <mxGeometry relative="1" as="geometry" />
        </mxCell>
        <mxCell id="9Uqfcl2duKlNiUXf_q_9-113" style="edgeStyle=orthogonalEdgeStyle;rounded=0;orthogonalLoop=1;jettySize=auto;html=1;entryX=0;entryY=0.5;entryDx=0;entryDy=0;curved=1;fillColor=#d5e8d4;strokeColor=#82b366;strokeWidth=2;" parent="1" source="9Uqfcl2duKlNiUXf_q_9-114" target="9Uqfcl2duKlNiUXf_q_9-35" edge="1">
          <mxGeometry relative="1" as="geometry" />
        </mxCell>
        <mxCell id="9Uqfcl2duKlNiUXf_q_9-114" value="&lt;h2&gt;kobject_create_and_add&lt;/h2&gt;" style="rounded=1;whiteSpace=wrap;html=1;fillColor=#dae8fc;strokeColor=#6c8ebf;fontStyle=1" parent="1" vertex="1">
          <mxGeometry x="797" y="1085" width="220" height="40" as="geometry" />
        </mxCell>
        <mxCell id="9Uqfcl2duKlNiUXf_q_9-115" style="edgeStyle=orthogonalEdgeStyle;rounded=0;orthogonalLoop=1;jettySize=auto;html=1;entryX=0;entryY=0.5;entryDx=0;entryDy=0;" parent="1" source="9Uqfcl2duKlNiUXf_q_9-117" target="9Uqfcl2duKlNiUXf_q_9-120" edge="1">
          <mxGeometry relative="1" as="geometry" />
        </mxCell>
        <mxCell id="9Uqfcl2duKlNiUXf_q_9-116" style="edgeStyle=orthogonalEdgeStyle;rounded=0;orthogonalLoop=1;jettySize=auto;html=1;entryX=0;entryY=0.5;entryDx=0;entryDy=0;" parent="1" source="9Uqfcl2duKlNiUXf_q_9-117" target="9Uqfcl2duKlNiUXf_q_9-123" edge="1">
          <mxGeometry relative="1" as="geometry" />
        </mxCell>
        <mxCell id="9Uqfcl2duKlNiUXf_q_9-117" value="&lt;h2&gt;buses_init&lt;/h2&gt;" style="rounded=1;whiteSpace=wrap;html=1;fillColor=#dae8fc;strokeColor=#6c8ebf;fontStyle=1" parent="1" vertex="1">
          <mxGeometry x="677" y="1135" width="120" height="40" as="geometry" />
        </mxCell>
        <mxCell id="9Uqfcl2duKlNiUXf_q_9-118" style="edgeStyle=orthogonalEdgeStyle;rounded=0;orthogonalLoop=1;jettySize=auto;html=1;entryX=1;entryY=0.5;entryDx=0;entryDy=0;shape=flexArrow;" parent="1" source="9Uqfcl2duKlNiUXf_q_9-120" target="9Uqfcl2duKlNiUXf_q_9-131" edge="1">
          <mxGeometry relative="1" as="geometry" />
        </mxCell>
        <mxCell id="9Uqfcl2duKlNiUXf_q_9-119" style="edgeStyle=orthogonalEdgeStyle;rounded=0;orthogonalLoop=1;jettySize=auto;html=1;entryX=0;entryY=0.5;entryDx=0;entryDy=0;fillColor=#f8cecc;strokeColor=#b85450;curved=1;strokeWidth=2;" parent="1" source="9Uqfcl2duKlNiUXf_q_9-120" target="9Uqfcl2duKlNiUXf_q_9-41" edge="1">
          <mxGeometry relative="1" as="geometry" />
        </mxCell>
        <mxCell id="9Uqfcl2duKlNiUXf_q_9-120" value="&lt;h2&gt;kset_create_and_add&lt;/h2&gt;" style="rounded=1;whiteSpace=wrap;html=1;fillColor=#dae8fc;strokeColor=#6c8ebf;fontStyle=1" parent="1" vertex="1">
          <mxGeometry x="797" y="1185" width="200" height="40" as="geometry" />
        </mxCell>
        <mxCell id="9Uqfcl2duKlNiUXf_q_9-121" style="edgeStyle=orthogonalEdgeStyle;rounded=0;orthogonalLoop=1;jettySize=auto;html=1;entryX=1;entryY=0.5;entryDx=0;entryDy=0;shape=flexArrow;" parent="1" source="9Uqfcl2duKlNiUXf_q_9-123" target="9Uqfcl2duKlNiUXf_q_9-132" edge="1">
          <mxGeometry relative="1" as="geometry" />
        </mxCell>
        <mxCell id="9Uqfcl2duKlNiUXf_q_9-122" style="rounded=0;orthogonalLoop=1;jettySize=auto;html=1;entryX=0;entryY=0.5;entryDx=0;entryDy=0;fillColor=#f8cecc;strokeColor=#b85450;startArrow=none;startFill=0;edgeStyle=orthogonalEdgeStyle;curved=1;strokeWidth=2;" parent="1" source="9Uqfcl2duKlNiUXf_q_9-123" target="9Uqfcl2duKlNiUXf_q_9-26" edge="1">
          <mxGeometry relative="1" as="geometry" />
        </mxCell>
        <mxCell id="9Uqfcl2duKlNiUXf_q_9-123" value="&lt;h2&gt;kset_create_and_add&lt;/h2&gt;" style="rounded=1;whiteSpace=wrap;html=1;fillColor=#dae8fc;strokeColor=#6c8ebf;fontStyle=1" parent="1" vertex="1">
          <mxGeometry x="797" y="1235" width="200" height="40" as="geometry" />
        </mxCell>
        <mxCell id="9Uqfcl2duKlNiUXf_q_9-124" style="edgeStyle=orthogonalEdgeStyle;rounded=0;orthogonalLoop=1;jettySize=auto;html=1;entryX=0;entryY=0.5;entryDx=0;entryDy=0;" parent="1" source="9Uqfcl2duKlNiUXf_q_9-125" target="9Uqfcl2duKlNiUXf_q_9-126" edge="1">
          <mxGeometry relative="1" as="geometry" />
        </mxCell>
        <mxCell id="9Uqfcl2duKlNiUXf_q_9-125" value="&lt;h2&gt;classed_init&lt;/h2&gt;" style="rounded=1;whiteSpace=wrap;html=1;fillColor=#dae8fc;strokeColor=#6c8ebf;fontStyle=1" parent="1" vertex="1">
          <mxGeometry x="677" y="1285" width="120" height="40" as="geometry" />
        </mxCell>
        <mxCell id="9Uqfcl2duKlNiUXf_q_9-197" style="edgeStyle=orthogonalEdgeStyle;rounded=0;orthogonalLoop=1;jettySize=auto;html=1;entryX=1;entryY=0.5;entryDx=0;entryDy=0;shape=flexArrow;" parent="1" source="9Uqfcl2duKlNiUXf_q_9-126" target="9Uqfcl2duKlNiUXf_q_9-189" edge="1">
          <mxGeometry relative="1" as="geometry" />
        </mxCell>
        <mxCell id="9Uqfcl2duKlNiUXf_q_9-216" style="edgeStyle=orthogonalEdgeStyle;rounded=0;orthogonalLoop=1;jettySize=auto;html=1;entryX=0;entryY=0.5;entryDx=0;entryDy=0;fillColor=#e1d5e7;strokeColor=#9673a6;curved=1;strokeWidth=2;" parent="1" source="9Uqfcl2duKlNiUXf_q_9-126" target="9Uqfcl2duKlNiUXf_q_9-64" edge="1">
          <mxGeometry relative="1" as="geometry" />
        </mxCell>
        <mxCell id="9Uqfcl2duKlNiUXf_q_9-126" value="&lt;h2&gt;kset_create_and_add&lt;/h2&gt;" style="rounded=1;whiteSpace=wrap;html=1;fillColor=#dae8fc;strokeColor=#6c8ebf;fontStyle=1" parent="1" vertex="1">
          <mxGeometry x="797" y="1335" width="200" height="40" as="geometry" />
        </mxCell>
        <mxCell id="9Uqfcl2duKlNiUXf_q_9-127" value="&lt;h2&gt;&lt;font style=&quot;font-size: 20px;&quot;&gt;devices的kset&lt;/font&gt;&lt;/h2&gt;" style="rounded=1;whiteSpace=wrap;html=1;fillColor=#fff2cc;strokeColor=#d6b656;fontStyle=1" parent="1" vertex="1">
          <mxGeometry x="527" y="935" width="170" height="40" as="geometry" />
        </mxCell>
        <mxCell id="9Uqfcl2duKlNiUXf_q_9-128" value="&lt;h2&gt;&lt;font style=&quot;font-size: 20px;&quot;&gt;dev的kobj&lt;/font&gt;&lt;/h2&gt;" style="rounded=1;whiteSpace=wrap;html=1;fillColor=#fff2cc;strokeColor=#d6b656;fontStyle=1" parent="1" vertex="1">
          <mxGeometry x="527" y="985" width="170" height="40" as="geometry" />
        </mxCell>
        <mxCell id="9Uqfcl2duKlNiUXf_q_9-129" value="&lt;h2&gt;&lt;font style=&quot;font-size: 20px;&quot;&gt;sysfs_dev_block的kobj&lt;/font&gt;&lt;/h2&gt;" style="rounded=1;whiteSpace=wrap;html=1;fillColor=#fff2cc;strokeColor=#d6b656;fontStyle=1" parent="1" vertex="1">
          <mxGeometry x="447" y="1035" width="250" height="40" as="geometry" />
        </mxCell>
        <mxCell id="9Uqfcl2duKlNiUXf_q_9-130" value="&lt;h2&gt;&lt;font style=&quot;font-size: 20px;&quot;&gt;sysfs_dev_char的kobj&lt;/font&gt;&lt;/h2&gt;" style="rounded=1;whiteSpace=wrap;html=1;fillColor=#fff2cc;strokeColor=#d6b656;fontStyle=1" parent="1" vertex="1">
          <mxGeometry x="447" y="1085" width="250" height="40" as="geometry" />
        </mxCell>
        <mxCell id="9Uqfcl2duKlNiUXf_q_9-131" value="&lt;h2&gt;&lt;font style=&quot;font-size: 20px;&quot;&gt;bus的kset&lt;/font&gt;&lt;/h2&gt;" style="rounded=1;whiteSpace=wrap;html=1;fillColor=#fff2cc;strokeColor=#d6b656;fontStyle=1" parent="1" vertex="1">
          <mxGeometry x="517" y="1185" width="170" height="40" as="geometry" />
        </mxCell>
        <mxCell id="9Uqfcl2duKlNiUXf_q_9-132" value="&lt;h2&gt;&lt;font style=&quot;font-size: 20px;&quot;&gt;system的kset&lt;/font&gt;&lt;/h2&gt;" style="rounded=1;whiteSpace=wrap;html=1;fillColor=#fff2cc;strokeColor=#d6b656;fontStyle=1" parent="1" vertex="1">
          <mxGeometry x="517" y="1235" width="170" height="40" as="geometry" />
        </mxCell>
        <mxCell id="9Uqfcl2duKlNiUXf_q_9-133" value="&lt;h2&gt;formware_init&lt;/h2&gt;" style="rounded=1;whiteSpace=wrap;html=1;fillColor=#dae8fc;strokeColor=#6c8ebf;fontStyle=1" parent="1" vertex="1">
          <mxGeometry x="677" y="1385" width="120" height="40" as="geometry" />
        </mxCell>
        <mxCell id="9Uqfcl2duKlNiUXf_q_9-134" style="edgeStyle=orthogonalEdgeStyle;rounded=0;orthogonalLoop=1;jettySize=auto;html=1;entryX=0;entryY=0.5;entryDx=0;entryDy=0;" parent="1" source="9Uqfcl2duKlNiUXf_q_9-133" target="9Uqfcl2duKlNiUXf_q_9-135" edge="1">
          <mxGeometry relative="1" as="geometry" />
        </mxCell>
        <mxCell id="9Uqfcl2duKlNiUXf_q_9-205" style="edgeStyle=orthogonalEdgeStyle;rounded=0;orthogonalLoop=1;jettySize=auto;html=1;entryX=1;entryY=0.5;entryDx=0;entryDy=0;shape=flexArrow;" parent="1" source="9Uqfcl2duKlNiUXf_q_9-135" target="9Uqfcl2duKlNiUXf_q_9-190" edge="1">
          <mxGeometry relative="1" as="geometry" />
        </mxCell>
        <mxCell id="9Uqfcl2duKlNiUXf_q_9-217" style="edgeStyle=orthogonalEdgeStyle;rounded=0;orthogonalLoop=1;jettySize=auto;html=1;entryX=0;entryY=0.25;entryDx=0;entryDy=0;curved=1;strokeWidth=2;fillColor=#e1d5e7;strokeColor=#9673a6;" parent="1" source="9Uqfcl2duKlNiUXf_q_9-135" target="9Uqfcl2duKlNiUXf_q_9-66" edge="1">
          <mxGeometry relative="1" as="geometry" />
        </mxCell>
        <mxCell id="9Uqfcl2duKlNiUXf_q_9-135" value="&lt;h2&gt;kobject_create_and_add&lt;/h2&gt;" style="rounded=1;whiteSpace=wrap;html=1;fillColor=#dae8fc;strokeColor=#6c8ebf;fontStyle=1" parent="1" vertex="1">
          <mxGeometry x="797" y="1435" width="230" height="40" as="geometry" />
        </mxCell>
        <mxCell id="9Uqfcl2duKlNiUXf_q_9-136" value="&lt;h2&gt;hypervisor_init&lt;/h2&gt;" style="rounded=1;whiteSpace=wrap;html=1;fillColor=#dae8fc;strokeColor=#6c8ebf;fontStyle=1" parent="1" vertex="1">
          <mxGeometry x="677" y="1485" width="150" height="40" as="geometry" />
        </mxCell>
        <mxCell id="9Uqfcl2duKlNiUXf_q_9-137" style="edgeStyle=orthogonalEdgeStyle;rounded=0;orthogonalLoop=1;jettySize=auto;html=1;entryX=0;entryY=0.5;entryDx=0;entryDy=0;" parent="1" source="9Uqfcl2duKlNiUXf_q_9-136" target="9Uqfcl2duKlNiUXf_q_9-138" edge="1">
          <mxGeometry relative="1" as="geometry" />
        </mxCell>
        <mxCell id="9Uqfcl2duKlNiUXf_q_9-206" style="edgeStyle=orthogonalEdgeStyle;rounded=0;orthogonalLoop=1;jettySize=auto;html=1;entryX=1;entryY=0.5;entryDx=0;entryDy=0;shape=flexArrow;" parent="1" source="9Uqfcl2duKlNiUXf_q_9-138" target="9Uqfcl2duKlNiUXf_q_9-191" edge="1">
          <mxGeometry relative="1" as="geometry" />
        </mxCell>
        <mxCell id="9Uqfcl2duKlNiUXf_q_9-218" style="edgeStyle=orthogonalEdgeStyle;rounded=0;orthogonalLoop=1;jettySize=auto;html=1;entryX=0;entryY=0.25;entryDx=0;entryDy=0;fillColor=#e1d5e7;strokeColor=#9673a6;curved=1;strokeWidth=2;" parent="1" source="9Uqfcl2duKlNiUXf_q_9-138" target="9Uqfcl2duKlNiUXf_q_9-68" edge="1">
          <mxGeometry relative="1" as="geometry" />
        </mxCell>
        <mxCell id="9Uqfcl2duKlNiUXf_q_9-138" value="&lt;h2&gt;kobject_create_and_add&lt;/h2&gt;" style="rounded=1;whiteSpace=wrap;html=1;fillColor=#dae8fc;strokeColor=#6c8ebf;fontStyle=1" parent="1" vertex="1">
          <mxGeometry x="797" y="1535" width="230" height="40" as="geometry" />
        </mxCell>
        <mxCell id="9Uqfcl2duKlNiUXf_q_9-139" value="&lt;h2&gt;of_core_init&lt;/h2&gt;" style="rounded=1;whiteSpace=wrap;html=1;fillColor=#dae8fc;strokeColor=#6c8ebf;fontStyle=1" parent="1" vertex="1">
          <mxGeometry x="677" y="1585" width="120" height="40" as="geometry" />
        </mxCell>
        <mxCell id="9Uqfcl2duKlNiUXf_q_9-140" style="edgeStyle=orthogonalEdgeStyle;rounded=0;orthogonalLoop=1;jettySize=auto;html=1;entryX=0;entryY=0.5;entryDx=0;entryDy=0;" parent="1" source="9Uqfcl2duKlNiUXf_q_9-139" target="9Uqfcl2duKlNiUXf_q_9-141" edge="1">
          <mxGeometry relative="1" as="geometry" />
        </mxCell>
        <mxCell id="9Uqfcl2duKlNiUXf_q_9-207" style="edgeStyle=orthogonalEdgeStyle;rounded=0;orthogonalLoop=1;jettySize=auto;html=1;entryX=1;entryY=0.5;entryDx=0;entryDy=0;shape=flexArrow;" parent="1" source="9Uqfcl2duKlNiUXf_q_9-141" target="9Uqfcl2duKlNiUXf_q_9-193" edge="1">
          <mxGeometry relative="1" as="geometry" />
        </mxCell>
        <mxCell id="9Uqfcl2duKlNiUXf_q_9-219" style="edgeStyle=orthogonalEdgeStyle;rounded=0;orthogonalLoop=1;jettySize=auto;html=1;entryX=0;entryY=0.25;entryDx=0;entryDy=0;curved=1;strokeWidth=2;fillColor=#e1d5e7;strokeColor=#9673a6;" parent="1" source="9Uqfcl2duKlNiUXf_q_9-141" target="9Uqfcl2duKlNiUXf_q_9-67" edge="1">
          <mxGeometry relative="1" as="geometry" />
        </mxCell>
        <mxCell id="9Uqfcl2duKlNiUXf_q_9-141" value="&lt;h2&gt;kset_create_and_add&lt;/h2&gt;" style="rounded=1;whiteSpace=wrap;html=1;fillColor=#dae8fc;strokeColor=#6c8ebf;fontStyle=1" parent="1" vertex="1">
          <mxGeometry x="797" y="1635" width="200" height="40" as="geometry" />
        </mxCell>
        <mxCell id="9Uqfcl2duKlNiUXf_q_9-142" style="edgeStyle=orthogonalEdgeStyle;rounded=0;orthogonalLoop=1;jettySize=auto;html=1;entryX=0;entryY=0.5;entryDx=0;entryDy=0;" parent="1" source="9Uqfcl2duKlNiUXf_q_9-143" target="9Uqfcl2duKlNiUXf_q_9-153" edge="1">
          <mxGeometry relative="1" as="geometry" />
        </mxCell>
        <mxCell id="9Uqfcl2duKlNiUXf_q_9-143" value="&lt;h2&gt;platform_bus_init&lt;/h2&gt;" style="rounded=1;whiteSpace=wrap;html=1;fillColor=#dae8fc;strokeColor=#6c8ebf;fontStyle=1" parent="1" vertex="1">
          <mxGeometry x="677" y="1685" width="170" height="40" as="geometry" />
        </mxCell>
        <mxCell id="9Uqfcl2duKlNiUXf_q_9-144" style="edgeStyle=orthogonalEdgeStyle;rounded=0;orthogonalLoop=1;jettySize=auto;html=1;entryX=0;entryY=0.5;entryDx=0;entryDy=0;" parent="1" source="9Uqfcl2duKlNiUXf_q_9-143" target="9Uqfcl2duKlNiUXf_q_9-146" edge="1">
          <mxGeometry relative="1" as="geometry" />
        </mxCell>
        <mxCell id="9Uqfcl2duKlNiUXf_q_9-145" style="edgeStyle=orthogonalEdgeStyle;rounded=0;orthogonalLoop=1;jettySize=auto;html=1;entryX=0;entryY=0.5;entryDx=0;entryDy=0;" parent="1" source="9Uqfcl2duKlNiUXf_q_9-146" target="9Uqfcl2duKlNiUXf_q_9-147" edge="1">
          <mxGeometry relative="1" as="geometry" />
        </mxCell>
        <mxCell id="9Uqfcl2duKlNiUXf_q_9-146" value="&lt;h2&gt;device_register&lt;/h2&gt;" style="rounded=1;whiteSpace=wrap;html=1;fillColor=#dae8fc;strokeColor=#6c8ebf;fontStyle=1" parent="1" vertex="1">
          <mxGeometry x="797" y="1735" width="200" height="40" as="geometry" />
        </mxCell>
        <mxCell id="9Uqfcl2duKlNiUXf_q_9-221" style="edgeStyle=orthogonalEdgeStyle;rounded=0;orthogonalLoop=1;jettySize=auto;html=1;entryX=0;entryY=0.75;entryDx=0;entryDy=0;fillColor=#a20025;strokeColor=#6F0000;strokeWidth=2;curved=1;" parent="1" source="9Uqfcl2duKlNiUXf_q_9-147" target="9Uqfcl2duKlNiUXf_q_9-30" edge="1">
          <mxGeometry relative="1" as="geometry" />
        </mxCell>
        <mxCell id="9Uqfcl2duKlNiUXf_q_9-147" value="&lt;h2&gt;kobjcet_add&lt;/h2&gt;" style="rounded=1;whiteSpace=wrap;html=1;fillColor=#dae8fc;strokeColor=#6c8ebf;fontStyle=1" parent="1" vertex="1">
          <mxGeometry x="967" y="1785" width="160" height="40" as="geometry" />
        </mxCell>
        <mxCell id="9Uqfcl2duKlNiUXf_q_9-148" style="edgeStyle=orthogonalEdgeStyle;rounded=0;orthogonalLoop=1;jettySize=auto;html=1;entryX=0;entryY=0.5;entryDx=0;entryDy=0;" parent="1" source="9Uqfcl2duKlNiUXf_q_9-153" target="9Uqfcl2duKlNiUXf_q_9-156" edge="1">
          <mxGeometry relative="1" as="geometry" />
        </mxCell>
        <mxCell id="9Uqfcl2duKlNiUXf_q_9-149" style="edgeStyle=orthogonalEdgeStyle;rounded=0;orthogonalLoop=1;jettySize=auto;html=1;entryX=0;entryY=0.5;entryDx=0;entryDy=0;" parent="1" source="9Uqfcl2duKlNiUXf_q_9-153" target="9Uqfcl2duKlNiUXf_q_9-157" edge="1">
          <mxGeometry relative="1" as="geometry" />
        </mxCell>
        <mxCell id="9Uqfcl2duKlNiUXf_q_9-150" style="edgeStyle=orthogonalEdgeStyle;rounded=0;orthogonalLoop=1;jettySize=auto;html=1;entryX=0;entryY=0.5;entryDx=0;entryDy=0;" parent="1" source="9Uqfcl2duKlNiUXf_q_9-153" target="9Uqfcl2duKlNiUXf_q_9-158" edge="1">
          <mxGeometry relative="1" as="geometry" />
        </mxCell>
        <mxCell id="9Uqfcl2duKlNiUXf_q_9-151" style="edgeStyle=orthogonalEdgeStyle;rounded=0;orthogonalLoop=1;jettySize=auto;html=1;entryX=0;entryY=0.5;entryDx=0;entryDy=0;" parent="1" source="9Uqfcl2duKlNiUXf_q_9-153" target="9Uqfcl2duKlNiUXf_q_9-159" edge="1">
          <mxGeometry relative="1" as="geometry" />
        </mxCell>
        <mxCell id="9Uqfcl2duKlNiUXf_q_9-152" style="edgeStyle=orthogonalEdgeStyle;rounded=0;orthogonalLoop=1;jettySize=auto;html=1;entryX=0;entryY=0.5;entryDx=0;entryDy=0;" parent="1" source="9Uqfcl2duKlNiUXf_q_9-153" target="9Uqfcl2duKlNiUXf_q_9-160" edge="1">
          <mxGeometry relative="1" as="geometry" />
        </mxCell>
        <mxCell id="9Uqfcl2duKlNiUXf_q_9-208" style="edgeStyle=orthogonalEdgeStyle;rounded=0;orthogonalLoop=1;jettySize=auto;html=1;entryX=1;entryY=0.5;entryDx=0;entryDy=0;shape=flexArrow;" parent="1" source="9Uqfcl2duKlNiUXf_q_9-153" target="9Uqfcl2duKlNiUXf_q_9-198" edge="1">
          <mxGeometry relative="1" as="geometry" />
        </mxCell>
        <mxCell id="9Uqfcl2duKlNiUXf_q_9-153" value="&lt;h2&gt;bus_register&lt;/h2&gt;" style="rounded=1;whiteSpace=wrap;html=1;fillColor=#dae8fc;strokeColor=#6c8ebf;fontStyle=1" parent="1" vertex="1">
          <mxGeometry x="797" y="1835" width="200" height="40" as="geometry" />
        </mxCell>
        <mxCell id="9Uqfcl2duKlNiUXf_q_9-220" style="edgeStyle=orthogonalEdgeStyle;rounded=0;orthogonalLoop=1;jettySize=auto;html=1;entryX=0;entryY=0.75;entryDx=0;entryDy=0;fillColor=#a20025;strokeColor=#6F0000;strokeWidth=2;curved=1;" parent="1" source="9Uqfcl2duKlNiUXf_q_9-154" target="9Uqfcl2duKlNiUXf_q_9-45" edge="1">
          <mxGeometry relative="1" as="geometry" />
        </mxCell>
        <mxCell id="9Uqfcl2duKlNiUXf_q_9-154" value="&lt;h2&gt;kset_register&lt;/h2&gt;" style="rounded=1;whiteSpace=wrap;html=1;fillColor=#dae8fc;strokeColor=#6c8ebf;fontStyle=1" parent="1" vertex="1">
          <mxGeometry x="967" y="1885" width="160" height="40" as="geometry" />
        </mxCell>
        <mxCell id="9Uqfcl2duKlNiUXf_q_9-155" style="edgeStyle=orthogonalEdgeStyle;rounded=0;orthogonalLoop=1;jettySize=auto;html=1;entryX=0;entryY=0.5;entryDx=0;entryDy=0;" parent="1" source="9Uqfcl2duKlNiUXf_q_9-153" target="9Uqfcl2duKlNiUXf_q_9-154" edge="1">
          <mxGeometry relative="1" as="geometry" />
        </mxCell>
        <mxCell id="9Uqfcl2duKlNiUXf_q_9-222" style="edgeStyle=orthogonalEdgeStyle;rounded=0;orthogonalLoop=1;jettySize=auto;html=1;entryX=0;entryY=0.75;entryDx=0;entryDy=0;fillColor=#a20025;strokeColor=#6F0000;curved=1;strokeWidth=2;" parent="1" source="9Uqfcl2duKlNiUXf_q_9-156" target="9Uqfcl2duKlNiUXf_q_9-48" edge="1">
          <mxGeometry relative="1" as="geometry" />
        </mxCell>
        <mxCell id="9Uqfcl2duKlNiUXf_q_9-156" value="&lt;h2&gt;bus_create_file&lt;/h2&gt;" style="rounded=1;whiteSpace=wrap;html=1;fillColor=#dae8fc;strokeColor=#6c8ebf;fontStyle=1" parent="1" vertex="1">
          <mxGeometry x="967" y="1935" width="160" height="40" as="geometry" />
        </mxCell>
        <mxCell id="9Uqfcl2duKlNiUXf_q_9-209" style="edgeStyle=orthogonalEdgeStyle;rounded=0;orthogonalLoop=1;jettySize=auto;html=1;entryX=1;entryY=0.5;entryDx=0;entryDy=0;shape=flexArrow;" parent="1" source="9Uqfcl2duKlNiUXf_q_9-157" target="9Uqfcl2duKlNiUXf_q_9-199" edge="1">
          <mxGeometry relative="1" as="geometry" />
        </mxCell>
        <mxCell id="9Uqfcl2duKlNiUXf_q_9-223" style="edgeStyle=orthogonalEdgeStyle;rounded=0;orthogonalLoop=1;jettySize=auto;html=1;entryX=0;entryY=0.75;entryDx=0;entryDy=0;fillColor=#1ba1e2;strokeColor=#006EAF;strokeWidth=2;curved=1;" parent="1" source="9Uqfcl2duKlNiUXf_q_9-157" target="9Uqfcl2duKlNiUXf_q_9-46" edge="1">
          <mxGeometry relative="1" as="geometry" />
        </mxCell>
        <mxCell id="9Uqfcl2duKlNiUXf_q_9-157" value="&lt;h2&gt;kset_create_and_add&lt;/h2&gt;" style="rounded=1;whiteSpace=wrap;html=1;fillColor=#dae8fc;strokeColor=#6c8ebf;fontStyle=1" parent="1" vertex="1">
          <mxGeometry x="967" y="1985" width="200" height="40" as="geometry" />
        </mxCell>
        <mxCell id="9Uqfcl2duKlNiUXf_q_9-210" style="edgeStyle=orthogonalEdgeStyle;rounded=0;orthogonalLoop=1;jettySize=auto;html=1;entryX=1;entryY=0.5;entryDx=0;entryDy=0;shape=flexArrow;" parent="1" source="9Uqfcl2duKlNiUXf_q_9-158" target="9Uqfcl2duKlNiUXf_q_9-200" edge="1">
          <mxGeometry relative="1" as="geometry" />
        </mxCell>
        <mxCell id="9Uqfcl2duKlNiUXf_q_9-224" style="edgeStyle=orthogonalEdgeStyle;rounded=0;orthogonalLoop=1;jettySize=auto;html=1;entryX=0;entryY=0.75;entryDx=0;entryDy=0;fillColor=#1ba1e2;strokeColor=#006EAF;strokeWidth=2;curved=1;" parent="1" source="9Uqfcl2duKlNiUXf_q_9-158" target="9Uqfcl2duKlNiUXf_q_9-47" edge="1">
          <mxGeometry relative="1" as="geometry" />
        </mxCell>
        <mxCell id="9Uqfcl2duKlNiUXf_q_9-158" value="&lt;h2&gt;kset_create_and_add&lt;/h2&gt;" style="rounded=1;whiteSpace=wrap;html=1;fillColor=#dae8fc;strokeColor=#6c8ebf;fontStyle=1" parent="1" vertex="1">
          <mxGeometry x="967" y="2035" width="200" height="40" as="geometry" />
        </mxCell>
        <mxCell id="9Uqfcl2duKlNiUXf_q_9-159" value="&lt;h2&gt;add_probe_files&lt;/h2&gt;" style="rounded=1;whiteSpace=wrap;html=1;fillColor=#dae8fc;strokeColor=#6c8ebf;fontStyle=1" parent="1" vertex="1">
          <mxGeometry x="967" y="2085" width="200" height="40" as="geometry" />
        </mxCell>
        <mxCell id="9Uqfcl2duKlNiUXf_q_9-160" value="&lt;h2&gt;bus_add_groups&lt;/h2&gt;" style="rounded=1;whiteSpace=wrap;html=1;fillColor=#dae8fc;strokeColor=#6c8ebf;fontStyle=1" parent="1" vertex="1">
          <mxGeometry x="967" y="2135" width="200" height="40" as="geometry" />
        </mxCell>
        <mxCell id="9Uqfcl2duKlNiUXf_q_9-225" style="edgeStyle=orthogonalEdgeStyle;rounded=0;orthogonalLoop=1;jettySize=auto;html=1;entryX=0;entryY=0.75;entryDx=0;entryDy=0;fillColor=#e3c800;strokeColor=light-dark(#FF0000,#FFFFFF);strokeWidth=2;curved=1;" parent="1" source="9Uqfcl2duKlNiUXf_q_9-161" target="9Uqfcl2duKlNiUXf_q_9-51" edge="1">
          <mxGeometry relative="1" as="geometry" />
        </mxCell>
        <mxCell id="9Uqfcl2duKlNiUXf_q_9-161" value="&lt;h2&gt;cpu_dev_init&lt;/h2&gt;" style="rounded=1;whiteSpace=wrap;html=1;fillColor=#dae8fc;strokeColor=#6c8ebf;fontStyle=1" parent="1" vertex="1">
          <mxGeometry x="677" y="2185" width="170" height="40" as="geometry" />
        </mxCell>
        <mxCell id="9Uqfcl2duKlNiUXf_q_9-226" style="edgeStyle=orthogonalEdgeStyle;rounded=0;orthogonalLoop=1;jettySize=auto;html=1;entryX=0;entryY=0.75;entryDx=0;entryDy=0;strokeWidth=2;curved=1;strokeColor=light-dark(#FF0000,#FFFFFF);" parent="1" source="9Uqfcl2duKlNiUXf_q_9-162" target="9Uqfcl2duKlNiUXf_q_9-56" edge="1">
          <mxGeometry relative="1" as="geometry" />
        </mxCell>
        <mxCell id="9Uqfcl2duKlNiUXf_q_9-162" value="&lt;h2&gt;memory_dev_init&lt;/h2&gt;" style="rounded=1;whiteSpace=wrap;html=1;fillColor=#dae8fc;strokeColor=#6c8ebf;fontStyle=1" parent="1" vertex="1">
          <mxGeometry x="677" y="2235" width="170" height="40" as="geometry" />
        </mxCell>
        <mxCell id="9Uqfcl2duKlNiUXf_q_9-227" style="edgeStyle=orthogonalEdgeStyle;rounded=0;orthogonalLoop=1;jettySize=auto;html=1;entryX=0;entryY=0.75;entryDx=0;entryDy=0;curved=1;strokeColor=light-dark(#FF0000,#FFFFFF);strokeWidth=2;" parent="1" source="9Uqfcl2duKlNiUXf_q_9-163" target="9Uqfcl2duKlNiUXf_q_9-29" edge="1">
          <mxGeometry relative="1" as="geometry" />
        </mxCell>
        <mxCell id="9Uqfcl2duKlNiUXf_q_9-163" value="&lt;h2&gt;container_dev_init&lt;/h2&gt;" style="rounded=1;whiteSpace=wrap;html=1;fillColor=#dae8fc;strokeColor=#6c8ebf;fontStyle=1" parent="1" vertex="1">
          <mxGeometry x="677" y="2285" width="170" height="40" as="geometry" />
        </mxCell>
        <mxCell id="9Uqfcl2duKlNiUXf_q_9-164" style="edgeStyle=orthogonalEdgeStyle;rounded=0;orthogonalLoop=1;jettySize=auto;html=1;entryX=0;entryY=0.5;entryDx=0;entryDy=0;" parent="1" source="9Uqfcl2duKlNiUXf_q_9-165" target="9Uqfcl2duKlNiUXf_q_9-168" edge="1">
          <mxGeometry relative="1" as="geometry" />
        </mxCell>
        <mxCell id="9Uqfcl2duKlNiUXf_q_9-165" value="&lt;h2&gt;do_initcalls&lt;/h2&gt;" style="rounded=1;whiteSpace=wrap;html=1;fillColor=#dae8fc;strokeColor=#6c8ebf;fontStyle=1" parent="1" vertex="1">
          <mxGeometry x="557" y="2355" width="120" height="40" as="geometry" />
        </mxCell>
        <mxCell id="9Uqfcl2duKlNiUXf_q_9-166" style="edgeStyle=orthogonalEdgeStyle;rounded=0;orthogonalLoop=1;jettySize=auto;html=1;entryX=0;entryY=0.5;entryDx=0;entryDy=0;" parent="1" source="9Uqfcl2duKlNiUXf_q_9-168" target="9Uqfcl2duKlNiUXf_q_9-171" edge="1">
          <mxGeometry relative="1" as="geometry" />
        </mxCell>
        <mxCell id="9Uqfcl2duKlNiUXf_q_9-167" style="edgeStyle=orthogonalEdgeStyle;rounded=0;orthogonalLoop=1;jettySize=auto;html=1;entryX=0;entryY=0.5;entryDx=0;entryDy=0;" parent="1" source="9Uqfcl2duKlNiUXf_q_9-168" target="9Uqfcl2duKlNiUXf_q_9-179" edge="1">
          <mxGeometry relative="1" as="geometry" />
        </mxCell>
        <mxCell id="9Uqfcl2duKlNiUXf_q_9-168" value="&lt;h2&gt;do_initcalls_level&lt;/h2&gt;" style="rounded=1;whiteSpace=wrap;html=1;fillColor=#dae8fc;strokeColor=#6c8ebf;fontStyle=1" parent="1" vertex="1">
          <mxGeometry x="677" y="2405" width="170" height="40" as="geometry" />
        </mxCell>
        <mxCell id="9Uqfcl2duKlNiUXf_q_9-169" style="edgeStyle=orthogonalEdgeStyle;rounded=0;orthogonalLoop=1;jettySize=auto;html=1;entryX=0;entryY=0.5;entryDx=0;entryDy=0;" parent="1" source="9Uqfcl2duKlNiUXf_q_9-171" target="9Uqfcl2duKlNiUXf_q_9-173" edge="1">
          <mxGeometry relative="1" as="geometry" />
        </mxCell>
        <mxCell id="9Uqfcl2duKlNiUXf_q_9-170" style="edgeStyle=orthogonalEdgeStyle;rounded=0;orthogonalLoop=1;jettySize=auto;html=1;entryX=0;entryY=0.5;entryDx=0;entryDy=0;" parent="1" source="9Uqfcl2duKlNiUXf_q_9-171" target="9Uqfcl2duKlNiUXf_q_9-176" edge="1">
          <mxGeometry relative="1" as="geometry" />
        </mxCell>
        <mxCell id="9Uqfcl2duKlNiUXf_q_9-171" value="&lt;h2&gt;core_initcall&lt;/h2&gt;" style="rounded=1;whiteSpace=wrap;html=1;fillColor=#dae8fc;strokeColor=#6c8ebf;fontStyle=1" parent="1" vertex="1">
          <mxGeometry x="797" y="2455" width="120" height="40" as="geometry" />
        </mxCell>
        <mxCell id="9Uqfcl2duKlNiUXf_q_9-172" style="edgeStyle=orthogonalEdgeStyle;rounded=0;orthogonalLoop=1;jettySize=auto;html=1;entryX=0;entryY=0.5;entryDx=0;entryDy=0;" parent="1" source="9Uqfcl2duKlNiUXf_q_9-173" target="9Uqfcl2duKlNiUXf_q_9-174" edge="1">
          <mxGeometry relative="1" as="geometry" />
        </mxCell>
        <mxCell id="9Uqfcl2duKlNiUXf_q_9-173" value="&lt;h2&gt;pm_init&lt;/h2&gt;" style="rounded=1;whiteSpace=wrap;html=1;fillColor=#dae8fc;strokeColor=#6c8ebf;fontStyle=1" parent="1" vertex="1">
          <mxGeometry x="887" y="2505" width="120" height="40" as="geometry" />
        </mxCell>
        <mxCell id="9Uqfcl2duKlNiUXf_q_9-212" style="edgeStyle=orthogonalEdgeStyle;rounded=0;orthogonalLoop=1;jettySize=auto;html=1;shape=flexArrow;" parent="1" source="9Uqfcl2duKlNiUXf_q_9-174" target="9Uqfcl2duKlNiUXf_q_9-201" edge="1">
          <mxGeometry relative="1" as="geometry" />
        </mxCell>
        <mxCell id="9Uqfcl2duKlNiUXf_q_9-228" style="edgeStyle=orthogonalEdgeStyle;rounded=0;orthogonalLoop=1;jettySize=auto;html=1;entryX=0;entryY=0.75;entryDx=0;entryDy=0;curved=1;fillColor=#fff2cc;gradientColor=#ffd966;strokeColor=#d6b656;strokeWidth=2;" parent="1" source="9Uqfcl2duKlNiUXf_q_9-174" target="9Uqfcl2duKlNiUXf_q_9-70" edge="1">
          <mxGeometry relative="1" as="geometry" />
        </mxCell>
        <mxCell id="9Uqfcl2duKlNiUXf_q_9-174" value="&lt;h2&gt;kobject_create_and_add&lt;/h2&gt;" style="rounded=1;whiteSpace=wrap;html=1;fillColor=#dae8fc;strokeColor=#6c8ebf;fontStyle=1" parent="1" vertex="1">
          <mxGeometry x="987" y="2555" width="240" height="40" as="geometry" />
        </mxCell>
        <mxCell id="9Uqfcl2duKlNiUXf_q_9-175" style="edgeStyle=orthogonalEdgeStyle;rounded=0;orthogonalLoop=1;jettySize=auto;html=1;entryX=0;entryY=0.5;entryDx=0;entryDy=0;" parent="1" source="9Uqfcl2duKlNiUXf_q_9-176" target="9Uqfcl2duKlNiUXf_q_9-177" edge="1">
          <mxGeometry relative="1" as="geometry" />
        </mxCell>
        <mxCell id="9Uqfcl2duKlNiUXf_q_9-176" value="&lt;h2&gt;ksysfs_init&lt;/h2&gt;" style="rounded=1;whiteSpace=wrap;html=1;fillColor=#dae8fc;strokeColor=#6c8ebf;fontStyle=1" parent="1" vertex="1">
          <mxGeometry x="887" y="2605" width="120" height="40" as="geometry" />
        </mxCell>
        <mxCell id="9Uqfcl2duKlNiUXf_q_9-213" style="edgeStyle=orthogonalEdgeStyle;rounded=0;orthogonalLoop=1;jettySize=auto;html=1;entryX=1;entryY=0.5;entryDx=0;entryDy=0;shape=flexArrow;" parent="1" source="9Uqfcl2duKlNiUXf_q_9-177" target="9Uqfcl2duKlNiUXf_q_9-202" edge="1">
          <mxGeometry relative="1" as="geometry" />
        </mxCell>
        <mxCell id="9Uqfcl2duKlNiUXf_q_9-229" style="edgeStyle=orthogonalEdgeStyle;rounded=0;orthogonalLoop=1;jettySize=auto;html=1;entryX=0;entryY=0.75;entryDx=0;entryDy=0;curved=1;fillColor=#fff2cc;gradientColor=#ffd966;strokeColor=#d6b656;strokeWidth=2;" parent="1" source="9Uqfcl2duKlNiUXf_q_9-177" target="9Uqfcl2duKlNiUXf_q_9-71" edge="1">
          <mxGeometry relative="1" as="geometry" />
        </mxCell>
        <mxCell id="9Uqfcl2duKlNiUXf_q_9-177" value="&lt;h2&gt;kobject_create_and_add&lt;/h2&gt;" style="rounded=1;whiteSpace=wrap;html=1;fillColor=#dae8fc;strokeColor=#6c8ebf;fontStyle=1" parent="1" vertex="1">
          <mxGeometry x="987" y="2655" width="240" height="40" as="geometry" />
        </mxCell>
        <mxCell id="9Uqfcl2duKlNiUXf_q_9-178" style="edgeStyle=orthogonalEdgeStyle;rounded=0;orthogonalLoop=1;jettySize=auto;html=1;entryX=0;entryY=0.5;entryDx=0;entryDy=0;" parent="1" source="9Uqfcl2duKlNiUXf_q_9-179" target="9Uqfcl2duKlNiUXf_q_9-182" edge="1">
          <mxGeometry relative="1" as="geometry" />
        </mxCell>
        <mxCell id="9Uqfcl2duKlNiUXf_q_9-179" value="&lt;h2&gt;do_one_initcall&lt;/h2&gt;" style="rounded=1;whiteSpace=wrap;html=1;fillColor=#dae8fc;strokeColor=#6c8ebf;fontStyle=1" parent="1" vertex="1">
          <mxGeometry x="797" y="2715" width="140" height="40" as="geometry" />
        </mxCell>
        <mxCell id="9Uqfcl2duKlNiUXf_q_9-180" style="edgeStyle=orthogonalEdgeStyle;rounded=0;orthogonalLoop=1;jettySize=auto;html=1;entryX=0;entryY=0.5;entryDx=0;entryDy=0;" parent="1" source="9Uqfcl2duKlNiUXf_q_9-182" target="9Uqfcl2duKlNiUXf_q_9-184" edge="1">
          <mxGeometry relative="1" as="geometry" />
        </mxCell>
        <mxCell id="9Uqfcl2duKlNiUXf_q_9-181" style="edgeStyle=orthogonalEdgeStyle;rounded=0;orthogonalLoop=1;jettySize=auto;html=1;entryX=0;entryY=0.5;entryDx=0;entryDy=0;" parent="1" source="9Uqfcl2duKlNiUXf_q_9-182" target="9Uqfcl2duKlNiUXf_q_9-187" edge="1">
          <mxGeometry relative="1" as="geometry" />
        </mxCell>
        <mxCell id="9Uqfcl2duKlNiUXf_q_9-182" value="&lt;h2&gt;subsys_initcall&lt;/h2&gt;" style="rounded=1;whiteSpace=wrap;html=1;fillColor=#dae8fc;strokeColor=#6c8ebf;fontStyle=1" parent="1" vertex="1">
          <mxGeometry x="902" y="2765" width="140" height="40" as="geometry" />
        </mxCell>
        <mxCell id="9Uqfcl2duKlNiUXf_q_9-183" style="edgeStyle=orthogonalEdgeStyle;rounded=0;orthogonalLoop=1;jettySize=auto;html=1;entryX=0;entryY=0.5;entryDx=0;entryDy=0;" parent="1" source="9Uqfcl2duKlNiUXf_q_9-184" target="9Uqfcl2duKlNiUXf_q_9-185" edge="1">
          <mxGeometry relative="1" as="geometry" />
        </mxCell>
        <mxCell id="9Uqfcl2duKlNiUXf_q_9-184" value="&lt;h2&gt;genhd_devices_init&lt;/h2&gt;" style="rounded=1;whiteSpace=wrap;html=1;fillColor=#dae8fc;strokeColor=#6c8ebf;fontStyle=1" parent="1" vertex="1">
          <mxGeometry x="1017" y="2815" width="200" height="40" as="geometry" />
        </mxCell>
        <mxCell id="9Uqfcl2duKlNiUXf_q_9-214" style="edgeStyle=orthogonalEdgeStyle;rounded=0;orthogonalLoop=1;jettySize=auto;html=1;entryX=1;entryY=0.5;entryDx=0;entryDy=0;shape=flexArrow;" parent="1" source="9Uqfcl2duKlNiUXf_q_9-185" target="9Uqfcl2duKlNiUXf_q_9-203" edge="1">
          <mxGeometry relative="1" as="geometry" />
        </mxCell>
        <mxCell id="9Uqfcl2duKlNiUXf_q_9-230" style="edgeStyle=orthogonalEdgeStyle;rounded=0;orthogonalLoop=1;jettySize=auto;html=1;entryX=0;entryY=0.75;entryDx=0;entryDy=0;curved=1;fillColor=#fff2cc;gradientColor=#ffd966;strokeColor=#d6b656;strokeWidth=2;" parent="1" source="9Uqfcl2duKlNiUXf_q_9-185" target="9Uqfcl2duKlNiUXf_q_9-72" edge="1">
          <mxGeometry relative="1" as="geometry" />
        </mxCell>
        <mxCell id="9Uqfcl2duKlNiUXf_q_9-185" value="&lt;h2&gt;kobject_create_and_add&lt;/h2&gt;" style="rounded=1;whiteSpace=wrap;html=1;fillColor=#dae8fc;strokeColor=#6c8ebf;fontStyle=1" parent="1" vertex="1">
          <mxGeometry x="1157" y="2865" width="240" height="40" as="geometry" />
        </mxCell>
        <mxCell id="9Uqfcl2duKlNiUXf_q_9-186" style="edgeStyle=orthogonalEdgeStyle;rounded=0;orthogonalLoop=1;jettySize=auto;html=1;entryX=0;entryY=0.5;entryDx=0;entryDy=0;" parent="1" source="9Uqfcl2duKlNiUXf_q_9-187" target="9Uqfcl2duKlNiUXf_q_9-188" edge="1">
          <mxGeometry relative="1" as="geometry" />
        </mxCell>
        <mxCell id="9Uqfcl2duKlNiUXf_q_9-187" value="&lt;h2&gt;param_sysfs_init&lt;/h2&gt;" style="rounded=1;whiteSpace=wrap;html=1;fillColor=#dae8fc;strokeColor=#6c8ebf;fontStyle=1" parent="1" vertex="1">
          <mxGeometry x="1013.6700000000001" y="2915" width="200" height="40" as="geometry" />
        </mxCell>
        <mxCell id="9Uqfcl2duKlNiUXf_q_9-215" style="edgeStyle=orthogonalEdgeStyle;rounded=0;orthogonalLoop=1;jettySize=auto;html=1;entryX=1;entryY=0.5;entryDx=0;entryDy=0;shape=flexArrow;" parent="1" source="9Uqfcl2duKlNiUXf_q_9-188" target="9Uqfcl2duKlNiUXf_q_9-204" edge="1">
          <mxGeometry relative="1" as="geometry" />
        </mxCell>
        <mxCell id="9Uqfcl2duKlNiUXf_q_9-231" style="edgeStyle=orthogonalEdgeStyle;rounded=0;orthogonalLoop=1;jettySize=auto;html=1;entryX=0;entryY=0.75;entryDx=0;entryDy=0;curved=1;fillColor=#fff2cc;gradientColor=#ffd966;strokeColor=#d6b656;strokeWidth=2;" parent="1" source="9Uqfcl2duKlNiUXf_q_9-188" target="9Uqfcl2duKlNiUXf_q_9-73" edge="1">
          <mxGeometry relative="1" as="geometry" />
        </mxCell>
        <mxCell id="9Uqfcl2duKlNiUXf_q_9-188" value="&lt;h2&gt;kset_create_and_add&lt;/h2&gt;" style="rounded=1;whiteSpace=wrap;html=1;fillColor=#dae8fc;strokeColor=#6c8ebf;fontStyle=1" parent="1" vertex="1">
          <mxGeometry x="1157" y="2965" width="200" height="40" as="geometry" />
        </mxCell>
        <mxCell id="9Uqfcl2duKlNiUXf_q_9-189" value="&lt;h2&gt;&lt;font style=&quot;font-size: 20px;&quot;&gt;class的kset&lt;/font&gt;&lt;/h2&gt;" style="rounded=1;whiteSpace=wrap;html=1;fillColor=#fff2cc;strokeColor=#d6b656;fontStyle=1" parent="1" vertex="1">
          <mxGeometry x="517" y="1335" width="170" height="40" as="geometry" />
        </mxCell>
        <mxCell id="9Uqfcl2duKlNiUXf_q_9-190" value="&lt;h2&gt;&lt;font style=&quot;font-size: 20px;&quot;&gt;firmware的kset&lt;/font&gt;&lt;/h2&gt;" style="rounded=1;whiteSpace=wrap;html=1;fillColor=#fff2cc;strokeColor=#d6b656;fontStyle=1" parent="1" vertex="1">
          <mxGeometry x="517" y="1435" width="170" height="40" as="geometry" />
        </mxCell>
        <mxCell id="9Uqfcl2duKlNiUXf_q_9-191" value="&lt;h2&gt;&lt;font style=&quot;font-size: 20px;&quot;&gt;hypervisor的kset&lt;/font&gt;&lt;/h2&gt;" style="rounded=1;whiteSpace=wrap;html=1;fillColor=#fff2cc;strokeColor=#d6b656;fontStyle=1" parent="1" vertex="1">
          <mxGeometry x="507" y="1535" width="170" height="40" as="geometry" />
        </mxCell>
        <mxCell id="9Uqfcl2duKlNiUXf_q_9-193" value="&lt;h2&gt;&lt;font style=&quot;font-size: 20px;&quot;&gt;of的kset&lt;/font&gt;&lt;/h2&gt;" style="rounded=1;whiteSpace=wrap;html=1;fillColor=#fff2cc;strokeColor=#d6b656;fontStyle=1" parent="1" vertex="1">
          <mxGeometry x="507" y="1635" width="170" height="40" as="geometry" />
        </mxCell>
        <mxCell id="9Uqfcl2duKlNiUXf_q_9-198" value="&lt;h2&gt;&lt;font style=&quot;font-size: 20px;&quot;&gt;platform_bus_type&lt;/font&gt;&lt;/h2&gt;" style="rounded=1;whiteSpace=wrap;html=1;fillColor=#fff2cc;strokeColor=#d6b656;fontStyle=1" parent="1" vertex="1">
          <mxGeometry x="472" y="1835" width="205" height="40" as="geometry" />
        </mxCell>
        <mxCell id="9Uqfcl2duKlNiUXf_q_9-199" value="&lt;h2&gt;&lt;span style=&quot;font-size: 20px;&quot;&gt;devices&lt;/span&gt;&lt;/h2&gt;" style="rounded=1;whiteSpace=wrap;html=1;fillColor=#fff2cc;strokeColor=#d6b656;fontStyle=1" parent="1" vertex="1">
          <mxGeometry x="517" y="1985" width="170" height="40" as="geometry" />
        </mxCell>
        <mxCell id="9Uqfcl2duKlNiUXf_q_9-200" value="&lt;h2&gt;&lt;span style=&quot;font-size: 20px;&quot;&gt;drivers&lt;/span&gt;&lt;/h2&gt;" style="rounded=1;whiteSpace=wrap;html=1;fillColor=#fff2cc;strokeColor=#d6b656;fontStyle=1" parent="1" vertex="1">
          <mxGeometry x="517" y="2035" width="170" height="40" as="geometry" />
        </mxCell>
        <mxCell id="9Uqfcl2duKlNiUXf_q_9-201" value="&lt;h2&gt;&lt;span style=&quot;font-size: 20px;&quot;&gt;power的kobj&lt;/span&gt;&lt;/h2&gt;" style="rounded=1;whiteSpace=wrap;html=1;fillColor=#fff2cc;strokeColor=#d6b656;fontStyle=1" parent="1" vertex="1">
          <mxGeometry x="687" y="2555" width="170" height="40" as="geometry" />
        </mxCell>
        <mxCell id="9Uqfcl2duKlNiUXf_q_9-202" value="&lt;h2&gt;&lt;span style=&quot;font-size: 20px;&quot;&gt;kernel的kobj&lt;/span&gt;&lt;/h2&gt;" style="rounded=1;whiteSpace=wrap;html=1;fillColor=#fff2cc;strokeColor=#d6b656;fontStyle=1" parent="1" vertex="1">
          <mxGeometry x="687" y="2655" width="170" height="40" as="geometry" />
        </mxCell>
        <mxCell id="9Uqfcl2duKlNiUXf_q_9-203" value="&lt;h2&gt;&lt;span style=&quot;font-size: 20px;&quot;&gt;block_depr&lt;/span&gt;&lt;/h2&gt;" style="rounded=1;whiteSpace=wrap;html=1;fillColor=#fff2cc;strokeColor=#d6b656;fontStyle=1" parent="1" vertex="1">
          <mxGeometry x="792" y="2865" width="170" height="40" as="geometry" />
        </mxCell>
        <mxCell id="9Uqfcl2duKlNiUXf_q_9-204" value="&lt;h2&gt;&lt;span style=&quot;font-size: 20px;&quot;&gt;module_kset&lt;/span&gt;&lt;/h2&gt;" style="rounded=1;whiteSpace=wrap;html=1;fillColor=#fff2cc;strokeColor=#d6b656;fontStyle=1" parent="1" vertex="1">
          <mxGeometry x="797" y="2965" width="170" height="40" as="geometry" />
        </mxCell>
        <mxCell id="9Uqfcl2duKlNiUXf_q_9-211" style="edgeStyle=orthogonalEdgeStyle;rounded=0;orthogonalLoop=1;jettySize=auto;html=1;exitX=0.5;exitY=1;exitDx=0;exitDy=0;entryX=0.521;entryY=0.625;entryDx=0;entryDy=0;entryPerimeter=0;" parent="1" source="9Uqfcl2duKlNiUXf_q_9-174" target="9Uqfcl2duKlNiUXf_q_9-174" edge="1">
          <mxGeometry relative="1" as="geometry" />
        </mxCell>
        <mxCell id="9Uqfcl2duKlNiUXf_q_9-232" value="" style="shape=table;startSize=0;container=1;collapsible=0;childLayout=tableLayout;fixedRows=1;rowLines=0;fontStyle=0;strokeColor=default;fontSize=14;" parent="1" vertex="1">
          <mxGeometry x="290" y="69" width="1147" height="221" as="geometry" />
        </mxCell>
        <mxCell id="9Uqfcl2duKlNiUXf_q_9-233" value="" style="shape=tableRow;horizontal=0;startSize=0;swimlaneHead=0;swimlaneBody=0;top=0;left=0;bottom=0;right=0;collapsible=0;dropTarget=0;fillColor=none;points=[[0,0.5],[1,0.5]];portConstraint=eastwest;strokeColor=inherit;fontSize=22;" parent="9Uqfcl2duKlNiUXf_q_9-232" vertex="1">
          <mxGeometry width="1147" height="51" as="geometry" />
        </mxCell>
        <mxCell id="9Uqfcl2duKlNiUXf_q_9-234" value="①" style="shape=partialRectangle;html=1;whiteSpace=wrap;connectable=0;fillColor=none;top=0;left=0;bottom=0;right=0;overflow=hidden;pointerEvents=1;strokeColor=inherit;fontSize=24;" parent="9Uqfcl2duKlNiUXf_q_9-233" vertex="1">
          <mxGeometry width="75" height="51" as="geometry">
            <mxRectangle width="75" height="51" as="alternateBounds" />
          </mxGeometry>
        </mxCell>
        <mxCell id="9Uqfcl2duKlNiUXf_q_9-235" value="&lt;b&gt;内核启动时&lt;/b&gt;初始化sysfs文件系统" style="shape=partialRectangle;html=1;whiteSpace=wrap;connectable=0;fillColor=none;top=0;left=0;bottom=0;right=0;align=left;spacingLeft=6;overflow=hidden;strokeColor=inherit;fontSize=22;" parent="9Uqfcl2duKlNiUXf_q_9-233" vertex="1">
          <mxGeometry x="75" width="1072" height="51" as="geometry">
            <mxRectangle width="1072" height="51" as="alternateBounds" />
          </mxGeometry>
        </mxCell>
        <mxCell id="9Uqfcl2duKlNiUXf_q_9-236" value="" style="shape=tableRow;horizontal=0;startSize=0;swimlaneHead=0;swimlaneBody=0;top=0;left=0;bottom=0;right=0;collapsible=0;dropTarget=0;fillColor=none;points=[[0,0.5],[1,0.5]];portConstraint=eastwest;strokeColor=inherit;fontSize=14;" parent="9Uqfcl2duKlNiUXf_q_9-232" vertex="1">
          <mxGeometry y="51" width="1147" height="60" as="geometry" />
        </mxCell>
        <mxCell id="9Uqfcl2duKlNiUXf_q_9-237" value="②" style="shape=partialRectangle;html=1;whiteSpace=wrap;connectable=0;fillColor=none;top=0;left=0;bottom=0;right=0;overflow=hidden;strokeColor=inherit;fontSize=24;" parent="9Uqfcl2duKlNiUXf_q_9-236" vertex="1">
          <mxGeometry width="75" height="60" as="geometry">
            <mxRectangle width="75" height="60" as="alternateBounds" />
          </mxGeometry>
        </mxCell>
        <mxCell id="9Uqfcl2duKlNiUXf_q_9-238" value="&lt;b&gt;创建根目录：&lt;/b&gt;bus、calss、devices等" style="shape=partialRectangle;html=1;whiteSpace=wrap;connectable=0;fillColor=none;top=0;left=0;bottom=0;right=0;align=left;spacingLeft=6;overflow=hidden;strokeColor=inherit;fontSize=22;" parent="9Uqfcl2duKlNiUXf_q_9-236" vertex="1">
          <mxGeometry x="75" width="1072" height="60" as="geometry">
            <mxRectangle width="1072" height="60" as="alternateBounds" />
          </mxGeometry>
        </mxCell>
        <mxCell id="9Uqfcl2duKlNiUXf_q_9-239" value="" style="shape=tableRow;horizontal=0;startSize=0;swimlaneHead=0;swimlaneBody=0;top=0;left=0;bottom=0;right=0;collapsible=0;dropTarget=0;fillColor=none;points=[[0,0.5],[1,0.5]];portConstraint=eastwest;strokeColor=inherit;fontSize=14;" parent="9Uqfcl2duKlNiUXf_q_9-232" vertex="1">
          <mxGeometry y="111" width="1147" height="50" as="geometry" />
        </mxCell>
        <mxCell id="9Uqfcl2duKlNiUXf_q_9-240" value="③" style="shape=partialRectangle;html=1;whiteSpace=wrap;connectable=0;fillColor=none;top=0;left=0;bottom=0;right=0;overflow=hidden;strokeColor=inherit;fontSize=24;" parent="9Uqfcl2duKlNiUXf_q_9-239" vertex="1">
          <mxGeometry width="75" height="50" as="geometry">
            <mxRectangle width="75" height="50" as="alternateBounds" />
          </mxGeometry>
        </mxCell>
        <mxCell id="9Uqfcl2duKlNiUXf_q_9-241" value="&lt;b&gt;注册各子系统：&lt;/b&gt;总线、设备、驱动依次注册" style="shape=partialRectangle;html=1;whiteSpace=wrap;connectable=0;fillColor=none;top=0;left=0;bottom=0;right=0;align=left;spacingLeft=6;overflow=hidden;strokeColor=inherit;fontSize=22;" parent="9Uqfcl2duKlNiUXf_q_9-239" vertex="1">
          <mxGeometry x="75" width="1072" height="50" as="geometry">
            <mxRectangle width="1072" height="50" as="alternateBounds" />
          </mxGeometry>
        </mxCell>
        <mxCell id="9Uqfcl2duKlNiUXf_q_9-242" value="" style="shape=tableRow;horizontal=0;startSize=0;swimlaneHead=0;swimlaneBody=0;top=0;left=0;bottom=0;right=0;collapsible=0;dropTarget=0;fillColor=none;points=[[0,0.5],[1,0.5]];portConstraint=eastwest;strokeColor=inherit;fontSize=14;" parent="9Uqfcl2duKlNiUXf_q_9-232" vertex="1">
          <mxGeometry y="161" width="1147" height="60" as="geometry" />
        </mxCell>
        <mxCell id="9Uqfcl2duKlNiUXf_q_9-243" value="④" style="shape=partialRectangle;html=1;whiteSpace=wrap;connectable=0;fillColor=none;top=0;left=0;bottom=0;right=0;overflow=hidden;strokeColor=inherit;fontSize=24;" parent="9Uqfcl2duKlNiUXf_q_9-242" vertex="1">
          <mxGeometry width="75" height="60" as="geometry">
            <mxRectangle width="75" height="60" as="alternateBounds" />
          </mxGeometry>
        </mxCell>
        <mxCell id="9Uqfcl2duKlNiUXf_q_9-244" value="&lt;b&gt;建立关联关系：&lt;/b&gt;通过符号链接建立对象间的关系" style="shape=partialRectangle;html=1;whiteSpace=wrap;connectable=0;fillColor=none;top=0;left=0;bottom=0;right=0;align=left;spacingLeft=6;overflow=hidden;strokeColor=inherit;fontSize=22;" parent="9Uqfcl2duKlNiUXf_q_9-242" vertex="1">
          <mxGeometry x="75" width="1072" height="60" as="geometry">
            <mxRectangle width="1072" height="60" as="alternateBounds" />
          </mxGeometry>
        </mxCell>
        <mxCell id="9Uqfcl2duKlNiUXf_q_9-251" value="&lt;h1&gt;&lt;b style=&quot;font-size: 35px;&quot;&gt;SysFs构建流程&lt;/b&gt;&lt;/h1&gt;" style="rounded=0;whiteSpace=wrap;html=1;" parent="1" vertex="1">
          <mxGeometry x="290" y="30" width="1147" height="39" as="geometry" />
        </mxCell>
        <mxCell id="vDGI-zXx0tpRyeT4bAuA-1" value="&lt;font style=&quot;font-size: 37px;&quot;&gt;🌻Make By Dakkk&lt;/font&gt;" style="html=1;shadow=0;dashed=0;shape=mxgraph.bootstrap.rrect;rSize=5;strokeColor=#1CA5B8;strokeWidth=1;fillColor=none;fontColor=#1CA5B8;whiteSpace=wrap;align=center;verticalAlign=middle;spacingLeft=0;fontStyle=1;fontSize=16;spacing=5;" vertex="1" parent="1">
          <mxGeometry x="1500" y="50" width="340" height="110" as="geometry" />
        </mxCell>
      </root>
    </mxGraphModel>
  </diagram>
</mxfile>
